Khula-ExtraBold1000.ufo
<glyph name="parenright.deva" format="1">
  <advance width="856"/>
  <unicode hex="0029"/>
  <outline>
    <contour>
      <point x="696" y="524" type="curve" smooth="yes"/>
      <point x="696" y="184"/>
      <point x="608" y="-100"/>
      <point x="443" y="-292" type="curve"/>
      <point x="151" y="-292" type="line"/>
      <point x="227" y="-189"/>
      <point x="285" y="-66"/>
      <point x="325" y="76" type="curve" smooth="yes"/>
      <point x="365" y="218"/>
      <point x="385" y="368"/>
      <point x="385" y="526" type="curve" smooth="yes"/>
      <point x="385" y="843"/>
      <point x="305" y="1136"/>
      <point x="149" y="1353" type="curve"/>
      <point x="443" y="1353" type="line"/>
      <point x="610" y="1153"/>
      <point x="696" y="863"/>
    </contour>
  </outline>
</glyph>
<glyph name="candrabindudeva" format="1">
  <advance width="0"/>
  <unicode hex="0901"/>
  <outline>
    <contour>
      <point x="-370" y="1928" type="curve" smooth="yes"/>
      <point x="-270" y="1928"/>
      <point x="-227" y="1860"/>
      <point x="-227" y="1803" type="curve" smooth="yes"/>
      <point x="-227" y="1746"/>
      <point x="-270" y="1677"/>
      <point x="-370" y="1677" type="curve" smooth="yes"/>
      <point x="-464" y="1677"/>
      <point x="-513" y="1743"/>
      <point x="-513" y="1803" type="curve" smooth="yes"/>
      <point x="-513" y="1861"/>
      <point x="-466" y="1928"/>
    </contour>
    <component base="ecandravowelsigndeva"/>
    <contour>
      <point x="-552.0" y="1294.0" type="move" name="_top"/>
    </contour>
  </outline>
</glyph>
<glyph name="aadeva" format="1">
  <advance width="2396"/>
  <unicode hex="0906"/>
  <outline>
    <contour>
      <point x="698" y="779" type="line"/>
      <point x="835" y="718"/>
      <point x="954" y="607"/>
      <point x="954" y="419" type="curve" smooth="yes"/>
      <point x="954" y="227"/>
      <point x="795" y="71"/>
      <point x="539" y="71" type="curve" smooth="yes"/>
      <point x="355" y="71"/>
      <point x="209" y="127"/>
      <point x="60" y="222" type="curve"/>
      <point x="127" y="483" type="line"/>
      <point x="250" y="399"/>
      <point x="356" y="360"/>
      <point x="459" y="360" type="curve" smooth="yes"/>
      <point x="563" y="360"/>
      <point x="617" y="411"/>
      <point x="617" y="490" type="curve" smooth="yes"/>
      <point x="617" y="549"/>
      <point x="572" y="592"/>
      <point x="496" y="620" type="curve"/>
    </contour>
    <contour>
      <point x="893" y="938" type="curve" smooth="yes"/>
      <point x="893" y="711"/>
      <point x="703" y="584"/>
      <point x="328" y="555" type="curve" smooth="yes"/>
      <point x="302" y="553" type="line"/>
      <point x="239" y="822" type="line"/>
      <point x="252" y="823" type="line" smooth="yes"/>
      <point x="529" y="844"/>
      <point x="570" y="891"/>
      <point x="570" y="967" type="curve" smooth="yes"/>
      <point x="570" y="1014"/>
      <point x="533" y="1039"/>
      <point x="460" y="1039" type="curve" smooth="yes"/>
      <point x="375" y="1039"/>
      <point x="296" y="1014"/>
      <point x="181" y="953" type="curve"/>
      <point x="101" y="1226" type="line"/>
      <point x="208" y="1274"/>
      <point x="316" y="1303"/>
      <point x="479" y="1303" type="curve" smooth="yes"/>
      <point x="739" y="1303"/>
      <point x="893" y="1154"/>
    </contour>
    <contour>
      <point x="719" y="703" type="line"/>
      <point x="783" y="679"/>
      <point x="851" y="667"/>
      <point x="937" y="667" type="curve" smooth="yes"/>
      <point x="1030" y="667"/>
      <point x="1158" y="699"/>
      <point x="1223" y="761" type="curve"/>
      <point x="1223" y="425" type="line"/>
      <point x="1194" y="419"/>
      <point x="1107" y="408"/>
      <point x="1053" y="408" type="curve" smooth="yes"/>
      <point x="955" y="408"/>
      <point x="883" y="416"/>
      <point x="778" y="429" type="curve"/>
    </contour>
    <contour>
      <point x="1846" y="1096" type="line"/>
      <point x="2212" y="1096" type="line"/>
      <point x="2212" y="0" type="line"/>
      <point x="1846" y="0" type="line"/>
    </contour>
    <contour>
      <point x="1176" y="1096" type="line"/>
      <point x="1542" y="1096" type="line"/>
      <point x="1542" y="0" type="line"/>
      <point x="1176" y="0" type="line"/>
    </contour>
    <contour>
      <point x="2426" y="1056" type="line"/>
      <point x="1014" y="1056" type="line"/>
      <point x="1014" y="1294" type="line"/>
      <point x="2426" y="1294" type="line"/>
    </contour>
  </outline>
</glyph>
<glyph name="udeva" format="1">
  <advance width="1130"/>
  <unicode hex="0909"/>
  <outline>
    <contour>
      <point x="324" y="531" type="line"/>
      <point x="260" y="812" type="line"/>
      <point x="287" y="814" type="line" smooth="yes"/>
      <point x="566" y="835"/>
      <point x="616" y="895"/>
      <point x="616" y="968" type="curve" smooth="yes"/>
      <point x="616" y="1026"/>
      <point x="586" y="1059"/>
      <point x="471" y="1069" type="curve"/>
      <point x="553" y="1265" type="line"/>
      <point x="798" y="1245"/>
      <point x="944" y="1143"/>
      <point x="944" y="924" type="curve" smooth="yes"/>
      <point x="944" y="722"/>
      <point x="773" y="562"/>
      <point x="353" y="533" type="curve" smooth="yes"/>
    </contour>
    <contour>
      <point x="-30" y="1056" type="curve"/>
      <point x="-30" y="1294" type="line"/>
      <point x="1160" y="1294" type="line"/>
      <point x="1160" y="1056" type="line"/>
      <point x="1160" y="1056"/>
      <point x="-30" y="1056"/>
    </contour>
    <contour>
      <point x="714" y="752" type="line"/>
      <point x="902" y="689"/>
      <point x="1032" y="536"/>
      <point x="1032" y="359" type="curve" smooth="yes"/>
      <point x="1032" y="142"/>
      <point x="877" y="-8"/>
      <point x="584" y="-8" type="curve" smooth="yes"/>
      <point x="384" y="-8"/>
      <point x="191" y="62"/>
      <point x="30" y="171" type="curve"/>
      <point x="119" y="442" type="line"/>
      <point x="248" y="348"/>
      <point x="398" y="291"/>
      <point x="503" y="291" type="curve" smooth="yes"/>
      <point x="616" y="291"/>
      <point x="678" y="345"/>
      <point x="678" y="420" type="curve" smooth="yes"/>
      <point x="678" y="488"/>
      <point x="626" y="559"/>
      <point x="499" y="580" type="curve"/>
    </contour>
    <contour>
      <point x="-115.0" y="8.0" type="move" name="x36"/>
    </contour>
    <contour>
      <point x="490" y="1294" type="move" name="top"/>
    </contour>
  </outline>
</glyph>
<glyph name="ngadeva" format="1">
  <advance width="1294"/>
  <unicode hex="0919"/>
  <outline>
    <contour>
      <point x="1186" y="1056" type="line"/>
      <point x="1186" y="1294" type="line"/>
      <point x="1324" y="1294" type="line"/>
      <point x="1324" y="1056" type="line"/>
    </contour>
    <contour>
      <point x="1265" y="813" type="curve" smooth="yes"/>
      <point x="1403" y="813"/>
      <point x="1447" y="729"/>
      <point x="1447" y="665" type="curve" smooth="yes"/>
      <point x="1447" y="601"/>
      <point x="1394" y="517"/>
      <point x="1265" y="517" type="curve" smooth="yes"/>
      <point x="1126" y="517"/>
      <point x="1079" y="602"/>
      <point x="1079" y="665" type="curve" smooth="yes"/>
      <point x="1079" y="728"/>
      <point x="1130" y="813"/>
    </contour>
    <component base="ddadeva"/>
    <contour>
      <point x="509.0" y="-20.0" type="move" name="btm"/>
    </contour>
    <contour>
      <point x="685.0" y="1294.0" type="move" name="top"/>
    </contour>
  </outline>
</glyph>
<glyph name="chadeva" format="1">
  <advance width="1644"/>
  <unicode hex="091B"/>
  <outline>
    <contour>
      <point x="688" y="809" type="curve"/>
      <point x="780" y="526" type="line"/>
      <point x="779" y="526"/>
      <point x="777" y="526"/>
      <point x="776" y="526" type="curve" smooth="yes"/>
      <point x="612" y="510"/>
      <point x="557" y="444"/>
      <point x="557" y="372" type="curve" smooth="yes"/>
      <point x="557" y="296"/>
      <point x="621" y="240"/>
      <point x="750" y="240" type="curve" smooth="yes"/>
      <point x="1031" y="240"/>
      <point x="1290" y="459"/>
      <point x="1290" y="650" type="curve" smooth="yes"/>
      <point x="1290" y="708"/>
      <point x="1249" y="750"/>
      <point x="1197" y="750" type="curve" smooth="yes"/>
      <point x="1143" y="750"/>
      <point x="1108" y="702"/>
      <point x="1108" y="653" type="curve" smooth="yes"/>
      <point x="1108" y="558"/>
      <point x="1164" y="480"/>
      <point x="1346" y="357" type="curve"/>
      <point x="1167" y="190" type="line"/>
      <point x="913" y="361"/>
      <point x="809" y="536"/>
      <point x="809" y="697" type="curve" smooth="yes"/>
      <point x="809" y="857"/>
      <point x="942" y="998"/>
      <point x="1167" y="998" type="curve" smooth="yes"/>
      <point x="1435" y="998"/>
      <point x="1585" y="853"/>
      <point x="1585" y="621" type="curve" smooth="yes"/>
      <point x="1585" y="346"/>
      <point x="1276" y="-42"/>
      <point x="746" y="-42" type="curve" smooth="yes"/>
      <point x="375" y="-42"/>
      <point x="192" y="178"/>
      <point x="192" y="416" type="curve" smooth="yes"/>
      <point x="192" y="614"/>
      <point x="363" y="793"/>
      <point x="683" y="809" type="curve" smooth="yes"/>
      <point x="685" y="809"/>
      <point x="686" y="809"/>
    </contour>
    <contour>
      <point x="610" y="767" type="curve"/>
      <point x="379" y="585" type="line"/>
      <point x="142" y="659"/>
      <point x="56" y="788"/>
      <point x="56" y="954" type="curve" smooth="yes"/>
      <point x="56" y="1095"/>
      <point x="206" y="1262"/>
      <point x="524" y="1264" type="curve"/>
      <point x="624" y="1076" type="line"/>
      <point x="483" y="1066"/>
      <point x="418" y="987"/>
      <point x="418" y="917" type="curve" smooth="yes"/>
      <point x="418" y="842"/>
      <point x="469" y="790"/>
    </contour>
    <contour>
      <point x="1674" y="1056" type="line"/>
      <point x="-30" y="1056" type="line"/>
      <point x="-30" y="1294" type="line"/>
      <point x="1674" y="1294" type="line"/>
    </contour>
    <contour>
      <point x="1094" y="1094" type="line"/>
      <point x="1460" y="1094" type="line"/>
      <point x="1460" y="870" type="line"/>
      <point x="1094" y="870" type="line"/>
    </contour>
    <contour>
      <point x="592.0" y="9.0" type="move" name="btm"/>
    </contour>
    <contour>
      <point x="980.0" y="1294.0" type="move" name="top"/>
    </contour>
  </outline>
</glyph>
<glyph name="tthadeva" format="1">
  <advance width="1364"/>
  <unicode hex="0920"/>
  <outline>
    <contour>
      <point x="964" y="483" type="curve" smooth="yes"/>
      <point x="964" y="554"/>
      <point x="921" y="602"/>
      <point x="868" y="645" type="curve"/>
      <point x="688" y="645" type="line" smooth="yes"/>
      <point x="492" y="645"/>
      <point x="408" y="564"/>
      <point x="408" y="458" type="curve" smooth="yes"/>
      <point x="408" y="349"/>
      <point x="501" y="262"/>
      <point x="668" y="262" type="curve" smooth="yes"/>
      <point x="851" y="262"/>
      <point x="964" y="347"/>
    </contour>
    <contour>
      <point x="1394" y="1056" type="line"/>
      <point x="-30" y="1056" type="line"/>
      <point x="-30" y="1294" type="line"/>
      <point x="1394" y="1294" type="line"/>
    </contour>
    <contour>
      <point x="786" y="1076" type="line"/>
      <point x="1152" y="1076" type="line"/>
      <point x="1152" y="732" type="line"/>
      <point x="1047" y="854" type="line"/>
      <point x="1153" y="795"/>
      <point x="1283" y="633"/>
      <point x="1283" y="430" type="curve" smooth="yes"/>
      <point x="1283" y="203"/>
      <point x="1096" y="1"/>
      <point x="724" y="1" type="curve" smooth="yes"/>
      <point x="292" y="1"/>
      <point x="63" y="248"/>
      <point x="63" y="508" type="curve" smooth="yes"/>
      <point x="63" y="756"/>
      <point x="241" y="909"/>
      <point x="566" y="909" type="curve" smooth="yes"/>
      <point x="849" y="909" type="line"/>
      <point x="786" y="851" type="line"/>
    </contour>
    <contour>
      <point x="527.0" y="20.0" type="move" name="btm"/>
    </contour>
    <contour>
      <point x="714.0" y="1294.0" type="move" name="top"/>
    </contour>
  </outline>
</glyph>
<glyph name="lladeva" format="1">
  <advance width="1708"/>
  <unicode hex="0933"/>
  <outline>
    <contour>
      <point x="1738" y="1056" type="line"/>
      <point x="-30" y="1056" type="line"/>
      <point x="-30" y="1294" type="line"/>
      <point x="1738" y="1294" type="line"/>
    </contour>
    <contour>
      <point x="685" y="560" type="curve" smooth="yes"/>
      <point x="777" y="769"/>
      <point x="887" y="924"/>
      <point x="1194" y="924" type="curve" smooth="yes"/>
      <point x="1511" y="924"/>
      <point x="1640" y="674"/>
      <point x="1640" y="471" type="curve" smooth="yes"/>
      <point x="1640" y="244"/>
      <point x="1478" y="44"/>
      <point x="1211" y="44" type="curve" smooth="yes"/>
      <point x="1024" y="44"/>
      <point x="859" y="119"/>
      <point x="706" y="243" type="curve"/>
      <point x="819" y="448" type="line"/>
      <point x="924" y="365"/>
      <point x="1027" y="310"/>
      <point x="1139" y="310" type="curve" smooth="yes"/>
      <point x="1250" y="310"/>
      <point x="1322" y="389"/>
      <point x="1322" y="505" type="curve" smooth="yes"/>
      <point x="1322" y="586"/>
      <point x="1281" y="629"/>
      <point x="1219" y="629" type="curve" smooth="yes"/>
      <point x="1151" y="629"/>
      <point x="1070" y="562"/>
      <point x="1024" y="459" type="curve" smooth="yes"/>
      <point x="925" y="236"/>
      <point x="778" y="34"/>
      <point x="514" y="34" type="curve" smooth="yes"/>
      <point x="213" y="34"/>
      <point x="38" y="233"/>
      <point x="38" y="489" type="curve" smooth="yes"/>
      <point x="38" y="720"/>
      <point x="201" y="910"/>
      <point x="470" y="910" type="curve" smooth="yes"/>
      <point x="648" y="910"/>
      <point x="803" y="852"/>
      <point x="946" y="740" type="curve"/>
      <point x="853" y="542" type="line"/>
      <point x="752" y="600"/>
      <point x="635" y="638"/>
      <point x="537" y="638" type="curve" smooth="yes"/>
      <point x="437" y="638"/>
      <point x="362" y="556"/>
      <point x="362" y="450" type="curve" smooth="yes"/>
      <point x="362" y="362"/>
      <point x="407" y="314"/>
      <point x="467" y="314" type="curve" smooth="yes"/>
      <point x="539" y="314"/>
      <point x="613" y="396"/>
    </contour>
    <contour>
      <point x="1524" y="773" type="line"/>
      <point x="1158" y="779" type="line"/>
      <point x="1158" y="1076" type="line"/>
      <point x="1524" y="1076" type="line"/>
    </contour>
    <contour>
      <point x="1023" y="0" type="move" name="btm"/>
    </contour>
    <contour>
      <point x="1073" y="1294" type="move" name="top"/>
    </contour>
  </outline>
</glyph>
<glyph name="hadeva" format="1">
  <advance width="1256"/>
  <unicode hex="0939"/>
  <outline>
    <contour>
      <point x="707" y="1066" type="line"/>
      <point x="1072" y="1066" type="line"/>
      <point x="1072" y="696" type="line"/>
      <point x="529" y="696" type="line" smooth="yes"/>
      <point x="435" y="696"/>
      <point x="396" y="658"/>
      <point x="396" y="608" type="curve" smooth="yes"/>
      <point x="396" y="557"/>
      <point x="441" y="527"/>
      <point x="536" y="506" type="curve"/>
      <point x="536" y="506"/>
      <point x="292" y="331"/>
      <point x="292" y="331" type="curve"/>
      <point x="122" y="434"/>
      <point x="42" y="547"/>
      <point x="42" y="683" type="curve" smooth="yes"/>
      <point x="42" y="822"/>
      <point x="154" y="934"/>
      <point x="378" y="934" type="curve" smooth="yes"/>
      <point x="746" y="934" type="line"/>
      <point x="707" y="881" type="line"/>
    </contour>
    <contour>
      <point x="159" y="387"/>
      <point x="330" y="569"/>
      <point x="673" y="569" type="curve" smooth="yes"/>
      <point x="1029" y="569"/>
      <point x="1183" y="398"/>
      <point x="1183" y="220" type="curve" smooth="yes"/>
      <point x="1183" y="139"/>
      <point x="1165" y="82"/>
      <point x="1131" y="11" type="curve"/>
      <point x="836" y="61" type="line"/>
      <point x="858" y="108"/>
      <point x="868" y="140"/>
      <point x="868" y="189" type="curve" smooth="yes"/>
      <point x="868" y="250"/>
      <point x="820" y="304"/>
      <point x="700" y="304" type="curve" smooth="yes"/>
      <point x="578" y="304"/>
      <point x="501" y="217"/>
      <point x="501" y="132" type="curve" smooth="yes"/>
      <point x="501" y="9"/>
      <point x="598" y="-76"/>
      <point x="1066" y="-135" type="curve"/>
      <point x="972" y="-373" type="line"/>
      <point x="401" y="-305"/>
      <point x="159" y="-112"/>
      <point x="159" y="174" type="curve" smooth="yes"/>
    </contour>
    <contour>
      <point x="1286" y="1056" type="line"/>
      <point x="-30" y="1056" type="line"/>
      <point x="-30" y="1294" type="line"/>
      <point x="1286" y="1294" type="line"/>
    </contour>
    <contour>
      <point x="707" y="1294" type="move" name="top"/>
    </contour>
  </outline>
</glyph>
<glyph name="iivowelsigndeva" format="1">
  <advance width="683"/>
  <unicode hex="0940"/>
  <outline>
    <contour>
      <point x="132" y="1239" type="curve"/>
      <point x="46" y="1438"/>
      <point x="-73" y="1527"/>
      <point x="-184" y="1527" type="curve" smooth="yes"/>
      <point x="-254" y="1527"/>
      <point x="-293" y="1478"/>
      <point x="-293" y="1415" type="curve" smooth="yes"/>
      <point x="-293" y="1352"/>
      <point x="-258" y="1301"/>
      <point x="-211" y="1250" type="curve"/>
      <point x="-571" y="1250" type="line"/>
      <point x="-612" y="1323"/>
      <point x="-644" y="1396"/>
      <point x="-644" y="1504" type="curve" smooth="yes"/>
      <point x="-644" y="1660"/>
      <point x="-534" y="1834"/>
      <point x="-258" y="1834" type="curve" smooth="yes"/>
      <point x="72" y="1834"/>
      <point x="342" y="1622"/>
      <point x="495" y="1239" type="curve"/>
      <point x="495" y="1239"/>
      <point x="132" y="1239"/>
    </contour>
    <component base="aavowelsigndeva"/>
    <contour>
      <point x="133" y="1294" type="move" name="top"/>
    </contour>
  </outline>
</glyph>
<glyph name="omdeva" format="1">
  <advance width="2093"/>
  <unicode hex="0950"/>
  <outline>
    <contour>
      <point x="641" y="967" type="curve" smooth="yes"/>
      <point x="641" y="1009"/>
      <point x="611" y="1039"/>
      <point x="536" y="1039" type="curve" smooth="yes"/>
      <point x="452" y="1039"/>
      <point x="366" y="1012"/>
      <point x="242" y="952" type="curve"/>
      <point x="162" y="1225" type="line"/>
      <point x="289" y="1280"/>
      <point x="406" y="1303"/>
      <point x="550" y="1303" type="curve" smooth="yes"/>
      <point x="835" y="1303"/>
      <point x="969" y="1140"/>
      <point x="969" y="934" type="curve" smooth="yes"/>
      <point x="969" y="707"/>
      <point x="764" y="584"/>
      <point x="389" y="555" type="curve" smooth="yes"/>
      <point x="363" y="553" type="line"/>
      <point x="300" y="823" type="line"/>
      <point x="313" y="824" type="line" smooth="yes"/>
      <point x="590" y="845"/>
      <point x="641" y="893"/>
    </contour>
    <contour>
      <point x="759" y="769" type="line"/>
      <point x="896" y="718"/>
      <point x="1023" y="584"/>
      <point x="1023" y="416" type="curve" smooth="yes"/>
      <point x="1023" y="224"/>
      <point x="876" y="71"/>
      <point x="620" y="71" type="curve" smooth="yes"/>
      <point x="456" y="71"/>
      <point x="317" y="115"/>
      <point x="121" y="222" type="curve"/>
      <point x="188" y="485" type="line"/>
      <point x="343" y="386"/>
      <point x="419" y="360"/>
      <point x="520" y="360" type="curve" smooth="yes"/>
      <point x="624" y="360"/>
      <point x="687" y="412"/>
      <point x="687" y="490" type="curve" smooth="yes"/>
      <point x="687" y="549"/>
      <point x="639" y="609"/>
      <point x="570" y="629" type="curve"/>
    </contour>
    <contour>
      <point x="1654" y="850" type="curve" smooth="yes"/>
      <point x="1593" y="850"/>
      <point x="1524" y="789"/>
      <point x="1479" y="686" type="curve" smooth="yes"/>
      <point x="1370" y="436"/>
      <point x="1260" y="296"/>
      <point x="1097" y="296" type="curve" smooth="yes"/>
      <point x="993" y="296"/>
      <point x="933" y="303"/>
      <point x="863" y="321" type="curve"/>
      <point x="819" y="592" type="line"/>
      <point x="893" y="571"/>
      <point x="937" y="551"/>
      <point x="984" y="556" type="curve" smooth="yes"/>
      <point x="1044" y="562"/>
      <point x="1083" y="643"/>
      <point x="1140" y="787" type="curve" smooth="yes"/>
      <point x="1197" y="930"/>
      <point x="1322" y="1151"/>
      <point x="1609" y="1151" type="curve" smooth="yes"/>
      <point x="1916" y="1151"/>
      <point x="2068" y="933"/>
      <point x="2068" y="707" type="curve" smooth="yes"/>
      <point x="2068" y="490"/>
      <point x="1913" y="291"/>
      <point x="1646" y="291" type="curve" smooth="yes"/>
      <point x="1459" y="291"/>
      <point x="1314" y="366"/>
      <point x="1161" y="490" type="curve"/>
      <point x="1284" y="695" type="line"/>
      <point x="1379" y="626"/>
      <point x="1473" y="569"/>
      <point x="1564" y="569" type="curve" smooth="yes"/>
      <point x="1658" y="569"/>
      <point x="1746" y="644"/>
      <point x="1746" y="742" type="curve" smooth="yes"/>
      <point x="1746" y="817"/>
      <point x="1707" y="850"/>
    </contour>
    <component base="candrabindudeva" xOffset="1552" yOffset="-86"/>
  </outline>
</glyph>
<glyph name="onedeva" format="1">
  <advance width="1054"/>
  <unicode hex="0967"/>
  <outline>
    <contour>
      <point x="184" y="344" type="line"/>
      <point x="524" y="673" type="line" smooth="yes"/>
      <point x="611" y="758"/>
      <point x="657" y="832"/>
      <point x="657" y="899" type="curve" smooth="yes"/>
      <point x="657" y="967"/>
      <point x="604" y="1027"/>
      <point x="527" y="1027" type="curve" smooth="yes"/>
      <point x="457" y="1027"/>
      <point x="401" y="975"/>
      <point x="401" y="906" type="curve" smooth="yes"/>
      <point x="401" y="823"/>
      <point x="488" y="747"/>
      <point x="663" y="712" type="curve"/>
      <point x="502" y="486" type="line"/>
      <point x="175" y="583"/>
      <point x="66" y="760"/>
      <point x="66" y="940" type="curve" smooth="yes"/>
      <point x="66" y="1131"/>
      <point x="211" y="1314"/>
      <point x="519" y="1314" type="curve" smooth="yes"/>
      <point x="825" y="1314"/>
      <point x="987" y="1099"/>
      <point x="987" y="906" type="curve" smooth="yes"/>
      <point x="987" y="761"/>
      <point x="940" y="669"/>
      <point x="846" y="567" type="curve" smooth="yes"/>
      <point x="594" y="293" type="line"/>
      <point x="545" y="414" type="line"/>
      <point x="794" y="204" type="line" smooth="yes"/>
      <point x="896" y="118"/>
      <point x="927" y="45"/>
      <point x="927" y="-23" type="curve" smooth="yes"/>
      <point x="927" y="-91"/>
      <point x="900" y="-153"/>
      <point x="857" y="-216" type="curve"/>
      <point x="530" y="-123" type="line"/>
      <point x="549" y="-92"/>
      <point x="559" y="-68"/>
      <point x="559" y="-31" type="curve" smooth="yes"/>
      <point x="559" y="9"/>
      <point x="533" y="39"/>
      <point x="497" y="67" type="curve" smooth="yes"/>
      <point x="184" y="312" type="line"/>
    </contour>
  </outline>
</glyph>
<glyph name="twodeva" format="1">
  <advance width="1072"/>
  <unicode hex="0968"/>
  <outline>
    <contour>
      <point x="306" y="447" type="line"/>
      <point x="597" y="565" type="line"/>
      <point x="968" y="-42" type="line"/>
      <point x="676" y="-174" type="line"/>
    </contour>
    <contour>
      <point x="352" y="312" type="curve" smooth="yes"/>
      <point x="154" y="312"/>
      <point x="84" y="378"/>
      <point x="84" y="482" type="curve" smooth="yes"/>
      <point x="84" y="624"/>
      <point x="226" y="792"/>
      <point x="375" y="792" type="curve" smooth="yes"/>
      <point x="464" y="792"/>
      <point x="516" y="743"/>
      <point x="584" y="606" type="curve"/>
      <point x="310" y="611" type="line"/>
      <point x="559" y="662"/>
      <point x="646" y="765"/>
      <point x="646" y="872" type="curve" smooth="yes"/>
      <point x="646" y="961"/>
      <point x="568" y="1024"/>
      <point x="456" y="1024" type="curve" smooth="yes"/>
      <point x="352" y="1024"/>
      <point x="258" y="1003"/>
      <point x="162" y="964" type="curve"/>
      <point x="66" y="1263" type="line"/>
      <point x="176" y="1296"/>
      <point x="293" y="1316"/>
      <point x="469" y="1316" type="curve" smooth="yes"/>
      <point x="827" y="1316"/>
      <point x="1006" y="1127"/>
      <point x="1006" y="872" type="curve" smooth="yes"/>
      <point x="1006" y="549"/>
      <point x="677" y="312"/>
    </contour>
  </outline>
</glyph>
<glyph name="threedeva" format="1">
  <advance width="1061"/>
  <unicode hex="0969"/>
  <outline>
    <contour>
      <point x="310" y="110" type="line"/>
      <point x="588" y="198" type="line"/>
      <point x="761" y="-153" type="line"/>
      <point x="489" y="-262" type="line"/>
    </contour>
    <contour>
      <point x="771" y="630" type="curve"/>
      <point x="484" y="748" type="line"/>
      <point x="548" y="817"/>
      <point x="571" y="860"/>
      <point x="571" y="927" type="curve" smooth="yes"/>
      <point x="571" y="986"/>
      <point x="525" y="1033"/>
      <point x="441" y="1033" type="curve" smooth="yes"/>
      <point x="346" y="1033"/>
      <point x="250" y="1000"/>
      <point x="167" y="956" type="curve"/>
      <point x="59" y="1238" type="line"/>
      <point x="176" y="1287"/>
      <point x="286" y="1315"/>
      <point x="458" y="1315" type="curve" smooth="yes"/>
      <point x="761" y="1315"/>
      <point x="902" y="1156"/>
      <point x="902" y="946" type="curve" smooth="yes"/>
      <point x="902" y="834"/>
      <point x="859" y="718"/>
    </contour>
    <contour>
      <point x="497" y="846" type="curve" smooth="yes"/>
      <point x="808" y="846"/>
      <point x="982" y="630"/>
      <point x="982" y="399" type="curve" smooth="yes"/>
      <point x="982" y="167"/>
      <point x="812" y="-5"/>
      <point x="465" y="-5" type="curve" smooth="yes"/>
      <point x="214" y="-5"/>
      <point x="94" y="61"/>
      <point x="94" y="159" type="curve" smooth="yes"/>
      <point x="94" y="288"/>
      <point x="241" y="411"/>
      <point x="384" y="411" type="curve" smooth="yes"/>
      <point x="465" y="411"/>
      <point x="544" y="365"/>
      <point x="584" y="229" type="curve"/>
      <point x="285" y="285" type="line"/>
      <point x="358" y="274"/>
      <point x="426" y="277"/>
      <point x="470" y="277" type="curve" smooth="yes"/>
      <point x="575" y="277"/>
      <point x="647" y="341"/>
      <point x="647" y="413" type="curve" smooth="yes"/>
      <point x="647" y="484"/>
      <point x="604" y="545"/>
      <point x="491" y="545" type="curve" smooth="yes"/>
      <point x="403" y="545"/>
      <point x="330" y="526"/>
      <point x="260" y="499" type="curve"/>
      <point x="177" y="792" type="line"/>
      <point x="266" y="821"/>
      <point x="389" y="846"/>
    </contour>
  </outline>
</glyph>
<glyph name="sixdeva" format="1">
  <advance width="1160"/>
  <unicode hex="096C"/>
  <outline>
    <contour>
      <point x="761" y="130" type="line"/>
      <point x="1035" y="216" type="line"/>
      <point x="1208" y="-135" type="line"/>
      <point x="940" y="-242" type="line"/>
    </contour>
    <contour>
      <point x="535" y="378" type="curve" smooth="yes"/>
      <point x="535" y="314"/>
      <point x="593" y="265"/>
      <point x="699" y="265" type="curve" smooth="yes"/>
      <point x="753" y="265"/>
      <point x="828" y="286"/>
      <point x="911" y="312" type="curve"/>
      <point x="726" y="176" type="line"/>
      <point x="697" y="226"/>
      <point x="680" y="279"/>
      <point x="680" y="329" type="curve" smooth="yes"/>
      <point x="680" y="396"/>
      <point x="733" y="453"/>
      <point x="865" y="453" type="curve" smooth="yes"/>
      <point x="1046" y="453"/>
      <point x="1195" y="368"/>
      <point x="1195" y="254" type="curve" smooth="yes"/>
      <point x="1195" y="134"/>
      <point x="1059" y="-2"/>
      <point x="752" y="-2" type="curve" smooth="yes"/>
      <point x="400" y="-2"/>
      <point x="191" y="185"/>
      <point x="191" y="435" type="curve" smooth="yes"/>
      <point x="191" y="645"/>
      <point x="384" y="854"/>
      <point x="831" y="877" type="curve"/>
      <point x="922" y="577" type="line"/>
      <point x="636" y="577"/>
      <point x="535" y="464"/>
    </contour>
    <contour>
      <point x="382" y="550" type="line"/>
      <point x="186" y="636"/>
      <point x="76" y="786"/>
      <point x="76" y="957" type="curve" smooth="yes"/>
      <point x="76" y="1152"/>
      <point x="250" y="1323"/>
      <point x="729" y="1323" type="curve"/>
      <point x="800" y="1032" type="line"/>
      <point x="505" y="1032"/>
      <point x="429" y="951"/>
      <point x="429" y="879" type="curve" smooth="yes"/>
      <point x="429" y="815"/>
      <point x="479" y="769"/>
      <point x="594" y="734" type="curve"/>
    </contour>
  </outline>
</glyph>
<glyph name="ninedeva" format="1">
  <advance width="1078"/>
  <unicode hex="096F"/>
  <outline>
    <contour>
      <point x="490" y="701" type="curve" smooth="yes"/>
      <point x="943" y="283" type="line" smooth="yes"/>
      <point x="1022" y="210"/>
      <point x="1069" y="121"/>
      <point x="1069" y="45" type="curve" smooth="yes"/>
      <point x="1069" y="-31"/>
      <point x="1045" y="-102"/>
      <point x="1015" y="-161" type="curve"/>
      <point x="655" y="-87" type="line"/>
      <point x="680" y="-42"/>
      <point x="693" y="-8"/>
      <point x="693" y="30" type="curve" smooth="yes"/>
      <point x="693" y="73"/>
      <point x="681" y="107"/>
      <point x="631" y="154" type="curve" smooth="yes"/>
      <point x="292" y="471" type="line" smooth="yes"/>
      <point x="130" y="622"/>
      <point x="57" y="746"/>
      <point x="57" y="924" type="curve" smooth="yes"/>
      <point x="57" y="1116"/>
      <point x="213" y="1314"/>
      <point x="504" y="1314" type="curve" smooth="yes"/>
      <point x="816" y="1314"/>
      <point x="990" y="1105"/>
      <point x="990" y="871" type="curve" smooth="yes"/>
      <point x="990" y="667"/>
      <point x="836" y="493"/>
      <point x="597" y="456" type="curve"/>
      <point x="412" y="678" type="line"/>
      <point x="592" y="714"/>
      <point x="665" y="801"/>
      <point x="665" y="886" type="curve" smooth="yes"/>
      <point x="665" y="963"/>
      <point x="610" y="1028"/>
      <point x="529" y="1028" type="curve" smooth="yes"/>
      <point x="447" y="1028"/>
      <point x="395" y="960"/>
      <point x="395" y="886" type="curve" smooth="yes"/>
      <point x="395" y="816"/>
      <point x="422" y="763"/>
    </contour>
  </outline>
</glyph>
<glyph name="quotedblleft.deva" format="1">
  <advance width="1246"/>
  <unicode hex="201C"/>
  <outline>
    <contour>
      <point x="612" y="789" type="line"/>
      <point x="599" y="809" type="line"/>
      <point x="659" y="1044"/>
      <point x="712" y="1212"/>
      <point x="758" y="1314" type="curve"/>
      <point x="1008" y="1314" type="line"/>
      <point x="968" y="1127"/>
      <point x="939" y="952"/>
      <point x="920" y="789" type="curve"/>
    </contour>
    <contour>
      <point x="153" y="789" type="line"/>
      <point x="140" y="809" type="line"/>
      <point x="200" y="1044"/>
      <point x="253" y="1212"/>
      <point x="299" y="1314" type="curve"/>
      <point x="549" y="1314" type="line"/>
      <point x="509" y="1127"/>
      <point x="480" y="952"/>
      <point x="461" y="789" type="curve"/>
    </contour>
  </outline>
</glyph>
<glyph name="baprehalfdeva" format="1">
  <advance width="723"/>
  <outline>
    <contour>
      <point x="753" y="1056" type="line"/>
      <point x="-30" y="1056" type="line"/>
      <point x="-30" y="1294" type="line"/>
      <point x="753" y="1294" type="line"/>
    </contour>
    <contour>
      <point x="768" y="437" type="line"/>
      <point x="639" y="342" type="line"/>
      <point x="338" y="685" type="line"/>
      <point x="467" y="780" type="line"/>
    </contour>
    <contour>
      <point x="751" y="575" type="curve" smooth="yes"/>
      <point x="751" y="630"/>
      <point x="679" y="696"/>
      <point x="562" y="696" type="curve" smooth="yes"/>
      <point x="439" y="696"/>
      <point x="380" y="635"/>
      <point x="380" y="548" type="curve" smooth="yes"/>
      <point x="380" y="477"/>
      <point x="437" y="422"/>
      <point x="524" y="422" type="curve" smooth="yes"/>
      <point x="679" y="422"/>
      <point x="751" y="490"/>
    </contour>
    <contour>
      <point x="1056" y="555" type="curve" smooth="yes"/>
      <point x="1056" y="329"/>
      <point x="842" y="151"/>
      <point x="563" y="151" type="curve" smooth="yes"/>
      <point x="247" y="151"/>
      <point x="53" y="366"/>
      <point x="53" y="608" type="curve" smooth="yes"/>
      <point x="53" y="813"/>
      <point x="225" y="949"/>
      <point x="475" y="949" type="curve" smooth="yes"/>
      <point x="869" y="949"/>
      <point x="1056" y="751"/>
    </contour>
  </outline>
</glyph>
<glyph name="dabhadeva" format="1">
  <advance width="1776"/>
  <outline>
    <contour>
      <point x="476" y="18" type="curve"/>
      <point x="561" y="-163" type="line"/>
      <point x="478" y="-210"/>
      <point x="413" y="-227"/>
      <point x="304" y="-227" type="curve" smooth="yes"/>
      <point x="94" y="-227"/>
      <point x="-54" y="-98"/>
      <point x="-54" y="70" type="curve" smooth="yes"/>
      <point x="-54" y="213"/>
      <point x="78" y="352"/>
      <point x="294" y="352" type="curve" smooth="yes"/>
      <point x="495" y="352"/>
      <point x="622" y="254"/>
      <point x="693" y="121" type="curve" smooth="yes"/>
      <point x="841" y="-157" type="line"/>
      <point x="791" y="-134" type="line"/>
      <point x="1287" y="125" type="line"/>
      <point x="1416" y="-114" type="line"/>
      <point x="904" y="-381" type="line"/>
      <point x="925" y="-312" type="line"/>
      <point x="973" y="-399" type="line" smooth="yes"/>
      <point x="992" y="-435"/>
      <point x="1002" y="-467"/>
      <point x="1000" y="-496" type="curve" smooth="yes"/>
      <point x="996" y="-556"/>
      <point x="938" y="-594"/>
      <point x="828" y="-594" type="curve" smooth="yes"/>
      <point x="607" y="-594"/>
      <point x="427" y="-483"/>
      <point x="427" y="-389" type="curve" smooth="yes"/>
      <point x="427" y="-352"/>
      <point x="449" y="-315"/>
      <point x="488" y="-294" type="curve" smooth="yes"/>
      <point x="604" y="-230" type="line"/>
      <point x="573" y="-273" type="line"/>
      <point x="409" y="34" type="line" smooth="yes"/>
      <point x="377" y="94"/>
      <point x="340" y="116"/>
      <point x="296" y="116" type="curve" smooth="yes"/>
      <point x="244" y="116"/>
      <point x="209" y="86"/>
      <point x="209" y="42" type="curve" smooth="yes"/>
      <point x="209" y="0"/>
      <point x="249" y="-26"/>
      <point x="304" y="-28" type="curve" smooth="yes"/>
      <point x="355" y="-30"/>
      <point x="418" y="-15"/>
    </contour>
    <contour>
      <point x="-30" y="1056" type="curve"/>
      <point x="-30" y="1294" type="line"/>
      <point x="1806" y="1294" type="line"/>
      <point x="1806" y="1056" type="line"/>
      <point x="1806" y="1056"/>
      <point x="-30" y="1056"/>
    </contour>
    <contour>
      <point x="1189" y="159" type="line"/>
      <point x="1464" y="247" type="line"/>
      <point x="1757" y="-300" type="line"/>
      <point x="1495" y="-414" type="line"/>
    </contour>
    <contour>
      <point x="1681" y="164"/>
      <point x="1517" y="43"/>
      <point x="1189" y="43" type="curve" smooth="yes"/>
      <point x="832" y="43"/>
      <point x="577" y="233"/>
      <point x="577" y="508" type="curve" smooth="yes"/>
      <point x="577" y="737"/>
      <point x="731" y="909"/>
      <point x="1094" y="909" type="curve" smooth="yes"/>
      <point x="1287" y="909" type="line"/>
      <point x="1215" y="853" type="line"/>
      <point x="1215" y="1086" type="line"/>
      <point x="1582" y="1086" type="line"/>
      <point x="1582" y="656" type="line"/>
      <point x="1193" y="656" type="line" smooth="yes"/>
      <point x="997" y="656"/>
      <point x="917" y="581"/>
      <point x="917" y="466" type="curve" smooth="yes"/>
      <point x="917" y="364"/>
      <point x="1006" y="295"/>
      <point x="1123" y="295" type="curve" smooth="yes"/>
      <point x="1218" y="295"/>
      <point x="1264" y="296"/>
      <point x="1383" y="321" type="curve"/>
      <point x="1172" y="204" type="line"/>
      <point x="1137" y="256"/>
      <point x="1127" y="321"/>
      <point x="1127" y="371" type="curve" smooth="yes"/>
      <point x="1127" y="440"/>
      <point x="1169" y="518"/>
      <point x="1321" y="518" type="curve" smooth="yes"/>
      <point x="1525" y="518"/>
      <point x="1681" y="415"/>
      <point x="1681" y="290" type="curve" smooth="yes"/>
    </contour>
    <contour>
      <point x="1149" y="-510" type="move" name="btm"/>
    </contour>
    <contour>
      <point x="1164" y="1294" type="move" name="top"/>
    </contour>
  </outline>
</glyph>
<glyph name="dadhayadeva" format="1">
  <advance width="2273"/>
  <outline>
    <contour>
      <point x="1719" y="1096" type="line"/>
      <point x="2085" y="1096" type="line"/>
      <point x="2085" y="-510" type="line"/>
      <point x="1719" y="-510" type="line"/>
    </contour>
    <contour>
      <point x="1204" y="166" type="curve"/>
      <point x="1276" y="27"/>
      <point x="1362" y="-22"/>
      <point x="1471" y="-22" type="curve" smooth="yes"/>
      <point x="1591" y="-22"/>
      <point x="1712" y="43"/>
      <point x="1765" y="183" type="curve"/>
      <point x="1765" y="-300" type="line"/>
      <point x="1710" y="-315"/>
      <point x="1654" y="-324"/>
      <point x="1580" y="-324" type="curve" smooth="yes"/>
      <point x="1370" y="-324"/>
      <point x="1127" y="-250"/>
      <point x="979" y="128" type="curve"/>
      <point x="979" y="128"/>
      <point x="1204" y="166"/>
    </contour>
    <contour>
      <point x="-30" y="1056" type="curve"/>
      <point x="-30" y="1294" type="line"/>
      <point x="2303" y="1294" type="line"/>
      <point x="2303" y="1056" type="line"/>
      <point x="2303" y="1056"/>
      <point x="-30" y="1056"/>
    </contour>
    <contour>
      <point x="571" y="-64" type="curve"/>
      <point x="512" y="-87"/>
      <point x="450" y="-100"/>
      <point x="338" y="-100" type="curve" smooth="yes"/>
      <point x="105" y="-100"/>
      <point x="-43" y="39"/>
      <point x="-43" y="232" type="curve" smooth="yes"/>
      <point x="-43" y="339"/>
      <point x="-3" y="445"/>
      <point x="67" y="546" type="curve"/>
      <point x="316" y="395" type="line"/>
      <point x="279" y="344"/>
      <point x="261" y="284"/>
      <point x="261" y="232" type="curve" smooth="yes"/>
      <point x="261" y="171"/>
      <point x="305" y="121"/>
      <point x="393" y="121" type="curve" smooth="yes"/>
      <point x="468" y="121"/>
      <point x="538" y="141"/>
      <point x="602" y="184" type="curve"/>
      <point x="602" y="184"/>
      <point x="571" y="-64"/>
    </contour>
    <contour>
      <point x="1472" y="164"/>
      <point x="1308" y="43"/>
      <point x="980" y="43" type="curve" smooth="yes"/>
      <point x="623" y="43"/>
      <point x="368" y="233"/>
      <point x="368" y="508" type="curve" smooth="yes"/>
      <point x="368" y="737"/>
      <point x="522" y="909"/>
      <point x="885" y="909" type="curve" smooth="yes"/>
      <point x="1077" y="909" type="line"/>
      <point x="1005" y="853" type="line"/>
      <point x="1005" y="1086" type="line"/>
      <point x="1372" y="1086" type="line"/>
      <point x="1372" y="656" type="line"/>
      <point x="984" y="656" type="line" smooth="yes"/>
      <point x="788" y="656"/>
      <point x="708" y="581"/>
      <point x="708" y="466" type="curve" smooth="yes"/>
      <point x="708" y="364"/>
      <point x="797" y="295"/>
      <point x="914" y="295" type="curve" smooth="yes"/>
      <point x="1009" y="295"/>
      <point x="1055" y="296"/>
      <point x="1174" y="321" type="curve"/>
      <point x="972" y="207" type="line"/>
      <point x="935" y="262"/>
      <point x="918" y="321"/>
      <point x="918" y="371" type="curve" smooth="yes"/>
      <point x="918" y="440"/>
      <point x="960" y="518"/>
      <point x="1112" y="518" type="curve" smooth="yes"/>
      <point x="1316" y="518"/>
      <point x="1472" y="415"/>
      <point x="1472" y="290" type="curve" smooth="yes"/>
    </contour>
    <contour>
      <point x="879" y="50" type="line"/>
      <point x="752" y="6"/>
      <point x="709" y="-81"/>
      <point x="708" y="-130" type="curve" smooth="yes"/>
      <point x="707" y="-175"/>
      <point x="735" y="-208"/>
      <point x="790" y="-208" type="curve" smooth="yes"/>
      <point x="915" y="-208"/>
      <point x="1036" y="-44"/>
      <point x="1008" y="185" type="curve"/>
      <point x="1225" y="-219" type="line"/>
      <point x="1122" y="-373"/>
      <point x="980" y="-462"/>
      <point x="788" y="-462" type="curve" smooth="yes"/>
      <point x="557" y="-462"/>
      <point x="433" y="-298"/>
      <point x="433" y="-140" type="curve" smooth="yes"/>
      <point x="433" y="-25"/>
      <point x="479" y="121"/>
      <point x="674" y="238" type="curve"/>
    </contour>
    <contour>
      <point x="1719.0" y="1294.0" type="move" name="top"/>
    </contour>
    <contour>
      <point x="1719.0" y="-510.0" type="move" name="btm"/>
    </contour>
  </outline>
</glyph>
<glyph name="dagadeva" format="1">
  <advance width="1262"/>
  <outline>
    <contour>
      <point x="675" y="159" type="line"/>
      <point x="950" y="247" type="line"/>
      <point x="1243" y="-300" type="line"/>
      <point x="981" y="-414" type="line"/>
    </contour>
    <contour>
      <point x="-30" y="1056" type="curve"/>
      <point x="-30" y="1294" type="line"/>
      <point x="1292" y="1294" type="line"/>
      <point x="1292" y="1056" type="line"/>
      <point x="1292" y="1056"/>
      <point x="-30" y="1056"/>
    </contour>
    <contour>
      <point x="1167" y="164"/>
      <point x="1003" y="43"/>
      <point x="675" y="43" type="curve" smooth="yes"/>
      <point x="318" y="43"/>
      <point x="63" y="233"/>
      <point x="63" y="508" type="curve" smooth="yes"/>
      <point x="63" y="737"/>
      <point x="217" y="909"/>
      <point x="580" y="909" type="curve" smooth="yes"/>
      <point x="773" y="909" type="line"/>
      <point x="701" y="853" type="line"/>
      <point x="701" y="1086" type="line"/>
      <point x="1068" y="1086" type="line"/>
      <point x="1068" y="656" type="line"/>
      <point x="679" y="656" type="line" smooth="yes"/>
      <point x="483" y="656"/>
      <point x="403" y="581"/>
      <point x="403" y="466" type="curve" smooth="yes"/>
      <point x="403" y="364"/>
      <point x="492" y="295"/>
      <point x="609" y="295" type="curve" smooth="yes"/>
      <point x="704" y="295"/>
      <point x="750" y="296"/>
      <point x="869" y="321" type="curve"/>
      <point x="658" y="204" type="line"/>
      <point x="623" y="256"/>
      <point x="613" y="321"/>
      <point x="613" y="371" type="curve" smooth="yes"/>
      <point x="613" y="440"/>
      <point x="655" y="518"/>
      <point x="807" y="518" type="curve" smooth="yes"/>
      <point x="1011" y="518"/>
      <point x="1167" y="415"/>
      <point x="1167" y="290" type="curve" smooth="yes"/>
    </contour>
    <contour>
      <point x="507" y="246" type="line"/>
      <point x="569" y="-313" type="line" smooth="yes"/>
      <point x="580" y="-411"/>
      <point x="558" y="-464"/>
      <point x="455" y="-464" type="curve" smooth="yes"/>
      <point x="290" y="-464"/>
      <point x="53" y="-329"/>
      <point x="53" y="-202" type="curve" smooth="yes"/>
      <point x="53" y="-149"/>
      <point x="88" y="-109"/>
      <point x="164" y="-100" type="curve" smooth="yes"/>
      <point x="278" y="-87" type="line"/>
      <point x="243" y="-127" type="line"/>
      <point x="205" y="213" type="line"/>
    </contour>
    <contour>
      <point x="579.0" y="-510.0" type="move" name="btm"/>
    </contour>
    <contour>
      <point x="649.0" y="1294.0" type="move" name="top"/>
    </contour>
  </outline>
</glyph>
<glyph name="ddhaddhadeva" format="1">
  <advance width="1283"/>
  <outline>
    <contour>
      <point x="605" y="186" type="line"/>
      <point x="960" y="186" type="line"/>
      <point x="960" y="-193" type="line"/>
      <point x="652" y="-193" type="line" smooth="yes"/>
      <point x="428" y="-193"/>
      <point x="359" y="-273"/>
      <point x="359" y="-369" type="curve" smooth="yes"/>
      <point x="359" y="-476"/>
      <point x="493" y="-547"/>
      <point x="706" y="-547" type="curve" smooth="yes"/>
      <point x="887" y="-547"/>
      <point x="931" y="-517"/>
      <point x="931" y="-484" type="curve" smooth="yes"/>
      <point x="931" y="-451"/>
      <point x="897" y="-434"/>
      <point x="837" y="-434" type="curve" smooth="yes"/>
      <point x="762" y="-434"/>
      <point x="700" y="-472"/>
      <point x="700" y="-526" type="curve" smooth="yes"/>
      <point x="700" y="-570"/>
      <point x="715" y="-611"/>
      <point x="735" y="-648" type="curve"/>
      <point x="472" y="-668" type="line"/>
      <point x="440" y="-603"/>
      <point x="429" y="-554"/>
      <point x="429" y="-482" type="curve" smooth="yes"/>
      <point x="429" y="-385"/>
      <point x="554" y="-268"/>
      <point x="823" y="-268" type="curve" smooth="yes"/>
      <point x="1092" y="-268"/>
      <point x="1182" y="-376"/>
      <point x="1182" y="-484" type="curve" smooth="yes"/>
      <point x="1182" y="-607"/>
      <point x="1034" y="-728"/>
      <point x="704" y="-728" type="curve" smooth="yes"/>
      <point x="271" y="-728"/>
      <point x="24" y="-518"/>
      <point x="24" y="-299" type="curve" smooth="yes"/>
      <point x="24" y="-131"/>
      <point x="145" y="29"/>
      <point x="540" y="29" type="curve" smooth="yes"/>
      <point x="646" y="29" type="line"/>
      <point x="605" y="-5" type="line"/>
    </contour>
    <contour>
      <point x="1313" y="1056" type="line"/>
      <point x="-30" y="1056" type="line"/>
      <point x="-30" y="1294" type="line"/>
      <point x="1313" y="1294" type="line"/>
    </contour>
    <contour>
      <point x="705" y="1086" type="line"/>
      <point x="1070" y="1086" type="line"/>
      <point x="1070" y="707" type="line"/>
      <point x="682" y="707" type="line" smooth="yes"/>
      <point x="438" y="707"/>
      <point x="376" y="607"/>
      <point x="376" y="511" type="curve" smooth="yes"/>
      <point x="376" y="404"/>
      <point x="523" y="303"/>
      <point x="736" y="303" type="curve" smooth="yes"/>
      <point x="888" y="303"/>
      <point x="961" y="350"/>
      <point x="961" y="393" type="curve" smooth="yes"/>
      <point x="961" y="429"/>
      <point x="927" y="446"/>
      <point x="867" y="446" type="curve" smooth="yes"/>
      <point x="792" y="446"/>
      <point x="740" y="397"/>
      <point x="740" y="344" type="curve" smooth="yes"/>
      <point x="740" y="300"/>
      <point x="757" y="259"/>
      <point x="770" y="222" type="curve"/>
      <point x="512" y="192" type="line"/>
      <point x="470" y="257"/>
      <point x="459" y="306"/>
      <point x="459" y="378" type="curve" smooth="yes"/>
      <point x="459" y="505"/>
      <point x="604" y="642"/>
      <point x="858" y="642" type="curve" smooth="yes"/>
      <point x="1115" y="642"/>
      <point x="1246" y="520"/>
      <point x="1246" y="386" type="curve" smooth="yes"/>
      <point x="1246" y="236"/>
      <point x="1069" y="112"/>
      <point x="739" y="112" type="curve" smooth="yes"/>
      <point x="296" y="112"/>
      <point x="45" y="354"/>
      <point x="45" y="583" type="curve" smooth="yes"/>
      <point x="45" y="771"/>
      <point x="175" y="949"/>
      <point x="570" y="949" type="curve" smooth="yes"/>
      <point x="746" y="949" type="line"/>
      <point x="705" y="915" type="line"/>
    </contour>
    <contour>
      <point x="460.0" y="-730.0" type="move" name="btm"/>
    </contour>
    <contour>
      <point x="665.0" y="1294.0" type="move" name="top"/>
    </contour>
  </outline>
</glyph>
<glyph name="ecandravowelsigncandrabindudeva" format="1">
  <advance width="0"/>
  <outline>
    <component base="candrabindudeva"/>
    <contour>
      <point x="49.0" y="8.0" type="move" name="x37"/>
    </contour>
    <contour>
      <point x="-552" y="1294" type="move" name="_top"/>
    </contour>
  </outline>
</glyph>
<glyph name="ecandravowelsignrephanusdeva" format="1">
  <advance width="-1"/>
  <outline>
    <component base="rephanusvaradeva"/>
    <component base="ecandravowelsigndeva" xScale="0.902226980518" xOffset="-799"/>
    <contour>
      <point x="49.0" y="8.0" type="move" name="x41"/>
    </contour>
    <contour>
      <point x="-552.0" y="1294.0" type="move" name="_top"/>
    </contour>
  </outline>
</glyph>
<glyph name="eshortvowelsignrephanusdeva" format="1">
  <advance width="0"/>
  <outline>
    <contour>
      <point x="-444" y="1244" type="line"/>
      <point x="-496" y="1309"/>
      <point x="-539" y="1404"/>
      <point x="-539" y="1500" type="curve" smooth="yes"/>
      <point x="-539" y="1667"/>
      <point x="-385" y="1826"/>
      <point x="-114" y="1826" type="curve" smooth="yes"/>
      <point x="-51" y="1826"/>
      <point x="3" y="1818"/>
      <point x="56" y="1805" type="curve"/>
      <point x="45" y="1624" type="line"/>
      <point x="24" y="1627"/>
      <point x="-5" y="1629"/>
      <point x="-46" y="1629" type="curve" smooth="yes"/>
      <point x="-158" y="1629"/>
      <point x="-232" y="1552"/>
      <point x="-232" y="1428" type="curve" smooth="yes"/>
      <point x="-232" y="1365"/>
      <point x="-232" y="1324"/>
      <point x="-232" y="1244" type="curve"/>
    </contour>
    <contour>
      <point x="-25" y="1561" type="curve" smooth="yes"/>
      <point x="71" y="1561"/>
      <point x="112" y="1501"/>
      <point x="112" y="1449" type="curve" smooth="yes"/>
      <point x="112" y="1400"/>
      <point x="71" y="1338"/>
      <point x="-25" y="1338" type="curve" smooth="yes"/>
      <point x="-115" y="1338"/>
      <point x="-162" y="1397"/>
      <point x="-162" y="1449" type="curve" smooth="yes"/>
      <point x="-162" y="1502"/>
      <point x="-116" y="1561"/>
    </contour>
    <component base="eshortvowelsigndeva"/>
    <contour>
      <point x="-552" y="1294" type="move" name="_top"/>
    </contour>
  </outline>
</glyph>
<glyph name="haladeva" format="1">
  <advance width="1780"/>
  <outline>
    <contour>
      <point x="1369" y="274" type="line"/>
      <point x="1369" y="2" type="line"/>
      <point x="1114" y="-220" type="line"/>
      <point x="956" y="-64" type="line"/>
    </contour>
    <contour>
      <point x="1248" y="50" type="curve"/>
      <point x="1111" y="-62" type="line"/>
      <point x="1067" y="10"/>
      <point x="1029" y="41"/>
      <point x="973" y="41" type="curve" smooth="yes"/>
      <point x="913" y="41"/>
      <point x="865" y="-2"/>
      <point x="865" y="-57" type="curve" smooth="yes"/>
      <point x="865" y="-117"/>
      <point x="896" y="-154"/>
      <point x="955" y="-217" type="curve"/>
      <point x="796" y="-286" type="line"/>
      <point x="704" y="-205"/>
      <point x="637" y="-100"/>
      <point x="637" y="-5" type="curve" smooth="yes"/>
      <point x="637" y="123"/>
      <point x="724" y="226"/>
      <point x="905" y="226" type="curve" smooth="yes"/>
      <point x="1052" y="226"/>
      <point x="1129" y="174"/>
    </contour>
    <contour>
      <point x="1810" y="1056" type="line"/>
      <point x="-30" y="1056" type="line"/>
      <point x="-30" y="1294" type="line"/>
      <point x="1810" y="1294" type="line"/>
    </contour>
    <contour>
      <point x="1231" y="1066" type="line"/>
      <point x="1596" y="1066" type="line"/>
      <point x="1596" y="696" type="line"/>
      <point x="529" y="696" type="line" smooth="yes"/>
      <point x="435" y="696"/>
      <point x="396" y="658"/>
      <point x="396" y="608" type="curve" smooth="yes"/>
      <point x="396" y="557"/>
      <point x="441" y="527"/>
      <point x="536" y="506" type="curve"/>
      <point x="536" y="506"/>
      <point x="292" y="331"/>
      <point x="292" y="331" type="curve"/>
      <point x="122" y="434"/>
      <point x="42" y="547"/>
      <point x="42" y="683" type="curve" smooth="yes"/>
      <point x="42" y="822"/>
      <point x="154" y="934"/>
      <point x="378" y="934" type="curve" smooth="yes"/>
      <point x="1270" y="934" type="line"/>
      <point x="1231" y="881" type="line"/>
    </contour>
    <contour>
      <point x="854" y="319" type="curve" smooth="yes"/>
      <point x="538" y="319"/>
      <point x="433" y="167"/>
      <point x="433" y="25" type="curve" smooth="yes"/>
      <point x="433" y="-100"/>
      <point x="494" y="-206"/>
      <point x="746" y="-415" type="curve"/>
      <point x="541" y="-568" type="line"/>
      <point x="238" y="-340"/>
      <point x="130" y="-119"/>
      <point x="130" y="94" type="curve" smooth="yes"/>
      <point x="130" y="305"/>
      <point x="295" y="584"/>
      <point x="842" y="584" type="curve" smooth="yes"/>
      <point x="1366" y="584"/>
      <point x="1635" y="383"/>
      <point x="1635" y="70" type="curve" smooth="yes"/>
      <point x="1635" y="-366" type="line"/>
      <point x="1318" y="-366" type="line"/>
      <point x="1318" y="81" type="line" smooth="yes"/>
      <point x="1318" y="234"/>
      <point x="1196" y="319"/>
    </contour>
    <contour>
      <point x="1318" y="-366" type="move" name="btm"/>
    </contour>
    <contour>
      <point x="1231" y="1294" type="move" name="top"/>
    </contour>
  </outline>
</glyph>
<glyph name="hamadeva" format="1">
  <advance width="1934"/>
  <outline>
    <contour>
      <point x="453.0" y="75.0" type="curve" smooth="yes"/>
      <point x="453.0" y="-50.0"/>
      <point x="509.0" y="-155.0"/>
      <point x="766.0" y="-363.0" type="curve"/>
      <point x="560.0" y="-518.0" type="line"/>
      <point x="270.0" y="-295.0"/>
      <point x="150.0" y="-80.0"/>
      <point x="150.0" y="134.0" type="curve" smooth="yes"/>
      <point x="150.0" y="360.0"/>
      <point x="303.0" y="571.0"/>
      <point x="639.0" y="571.0" type="curve" smooth="yes"/>
      <point x="943.0" y="571.0"/>
      <point x="1161.0" y="398.0"/>
      <point x="1161.0" y="114.0" type="curve" smooth="yes"/>
      <point x="1161.0" y="88.0" type="line"/>
      <point x="1080.0" y="196.0" type="line"/>
      <point x="1452.0" y="196.0" type="line"/>
      <point x="1452.0" y="-86.0" type="line"/>
      <point x="1111.0" y="-86.0" type="line"/>
      <point x="1162.0" y="-35.0" type="line"/>
      <point x="1162.0" y="-149.0" type="line" smooth="yes"/>
      <point x="1162.0" y="-242.0"/>
      <point x="1119.0" y="-298.0"/>
      <point x="1027.0" y="-298.0" type="curve" smooth="yes"/>
      <point x="956.0" y="-298.0"/>
      <point x="860" y="-246"/>
      <point x="784" y="-174" type="curve" smooth="yes"/>
      <point x="712" y="-105"/>
      <point x="658.0" y="-19.0"/>
      <point x="658.0" y="62.0" type="curve" smooth="yes"/>
      <point x="658.0" y="142.0"/>
      <point x="711.0" y="196.0"/>
      <point x="801.0" y="196.0" type="curve"/>
      <point x="879.0" y="196.0" type="line"/>
      <point x="854.0" y="131.0" type="line"/>
      <point x="854.0" y="158.0" type="line" smooth="yes"/>
      <point x="854.0" y="256.0"/>
      <point x="791.0" y="310.0"/>
      <point x="663.0" y="310.0" type="curve" smooth="yes"/>
      <point x="549.0" y="310.0"/>
      <point x="453.0" y="231.0"/>
    </contour>
    <contour>
      <point x="733" y="1066" type="line"/>
      <point x="1098" y="1066" type="line"/>
      <point x="1098" y="696" type="line"/>
      <point x="529" y="696" type="line" smooth="yes"/>
      <point x="435" y="696"/>
      <point x="396" y="658"/>
      <point x="396" y="608" type="curve" smooth="yes"/>
      <point x="396" y="557"/>
      <point x="441" y="527"/>
      <point x="536" y="506" type="curve"/>
      <point x="536" y="506"/>
      <point x="292" y="331"/>
      <point x="292" y="331" type="curve"/>
      <point x="122" y="434"/>
      <point x="42" y="547"/>
      <point x="42" y="683" type="curve" smooth="yes"/>
      <point x="42" y="822"/>
      <point x="154" y="934"/>
      <point x="378" y="934" type="curve" smooth="yes"/>
      <point x="772" y="934" type="line"/>
      <point x="733" y="881" type="line"/>
    </contour>
    <contour>
      <point x="-30" y="1056" type="curve"/>
      <point x="-30" y="1294" type="line"/>
      <point x="1964" y="1294" type="line"/>
      <point x="1964" y="1056" type="line"/>
      <point x="1964" y="1056"/>
      <point x="-30" y="1056"/>
    </contour>
    <contour>
      <point x="1384" y="1096" type="line"/>
      <point x="1750" y="1096" type="line"/>
      <point x="1750" y="-357" type="line"/>
      <point x="1384" y="-357" type="line"/>
    </contour>
    <contour>
      <point x="1384" y="1294" type="move" name="top"/>
    </contour>
    <contour>
      <point x="1384" y="-356" type="move" name="btm"/>
    </contour>
  </outline>
</glyph>
<glyph name="haradeva" format="1">
  <advance width="1361"/>
  <outline>
    <contour>
      <point x="980" y="375" type="line"/>
      <point x="842" y="7" type="line"/>
      <point x="581" y="79" type="line"/>
      <point x="712" y="451" type="line"/>
    </contour>
    <contour>
      <point x="812" y="1066" type="line"/>
      <point x="1177" y="1066" type="line"/>
      <point x="1177" y="696" type="line"/>
      <point x="529" y="696" type="line" smooth="yes"/>
      <point x="435" y="696"/>
      <point x="396" y="658"/>
      <point x="396" y="608" type="curve" smooth="yes"/>
      <point x="396" y="557"/>
      <point x="441" y="527"/>
      <point x="536" y="506" type="curve"/>
      <point x="536" y="506"/>
      <point x="292" y="331"/>
      <point x="292" y="331" type="curve"/>
      <point x="122" y="434"/>
      <point x="42" y="547"/>
      <point x="42" y="683" type="curve" smooth="yes"/>
      <point x="42" y="822"/>
      <point x="154" y="934"/>
      <point x="378" y="934" type="curve" smooth="yes"/>
      <point x="851" y="934" type="line"/>
      <point x="812" y="881" type="line"/>
    </contour>
    <contour>
      <point x="159" y="400"/>
      <point x="357" y="579"/>
      <point x="729" y="579" type="curve" smooth="yes"/>
      <point x="1081" y="579"/>
      <point x="1285" y="416"/>
      <point x="1285" y="220" type="curve" smooth="yes"/>
      <point x="1285" y="138"/>
      <point x="1273" y="88"/>
      <point x="1241" y="11" type="curve"/>
      <point x="961" y="61" type="line"/>
      <point x="982" y="105"/>
      <point x="993" y="152"/>
      <point x="993" y="201" type="curve" smooth="yes"/>
      <point x="993" y="287"/>
      <point x="939" y="346"/>
      <point x="768" y="346" type="curve" smooth="yes"/>
      <point x="572" y="346"/>
      <point x="491" y="237"/>
      <point x="491" y="132" type="curve" smooth="yes"/>
      <point x="491" y="-1"/>
      <point x="588" y="-76"/>
      <point x="1066" y="-135" type="curve"/>
      <point x="972" y="-373" type="line"/>
      <point x="401" y="-305"/>
      <point x="159" y="-111"/>
      <point x="159" y="171" type="curve" smooth="yes"/>
    </contour>
    <contour>
      <point x="1391" y="1056" type="line"/>
      <point x="-30" y="1056" type="line"/>
      <point x="-30" y="1294" type="line"/>
      <point x="1391" y="1294" type="line"/>
    </contour>
    <contour>
      <point x="812" y="1294" type="move" name="top"/>
    </contour>
  </outline>
</glyph>
<glyph name="haraudeva" format="1">
  <advance width="1361"/>
  <outline>
    <contour>
      <point x="980" y="375" type="line"/>
      <point x="842" y="7" type="line"/>
      <point x="581" y="79" type="line"/>
      <point x="712" y="451" type="line"/>
    </contour>
    <contour>
      <point x="1391" y="1056" type="line"/>
      <point x="-30" y="1056" type="line"/>
      <point x="-30" y="1294" type="line"/>
      <point x="1391" y="1294" type="line"/>
    </contour>
    <contour>
      <point x="812" y="1066" type="line"/>
      <point x="1177" y="1066" type="line"/>
      <point x="1177" y="696" type="line"/>
      <point x="529" y="696" type="line" smooth="yes"/>
      <point x="435" y="696"/>
      <point x="396" y="658"/>
      <point x="396" y="608" type="curve" smooth="yes"/>
      <point x="396" y="557"/>
      <point x="441" y="527"/>
      <point x="536" y="506" type="curve"/>
      <point x="536" y="506"/>
      <point x="292" y="331"/>
      <point x="292" y="331" type="curve"/>
      <point x="122" y="434"/>
      <point x="42" y="547"/>
      <point x="42" y="683" type="curve" smooth="yes"/>
      <point x="42" y="822"/>
      <point x="154" y="934"/>
      <point x="378" y="934" type="curve" smooth="yes"/>
      <point x="851" y="934" type="line"/>
      <point x="812" y="881" type="line"/>
    </contour>
    <contour>
      <point x="729" y="579" type="curve" smooth="yes"/>
      <point x="1081" y="579"/>
      <point x="1285" y="416"/>
      <point x="1285" y="220" type="curve" smooth="yes"/>
      <point x="1285" y="138"/>
      <point x="1273" y="88"/>
      <point x="1241" y="11" type="curve"/>
      <point x="961" y="61" type="line"/>
      <point x="982" y="105"/>
      <point x="993" y="152"/>
      <point x="993" y="201" type="curve" smooth="yes"/>
      <point x="993" y="287"/>
      <point x="939" y="346"/>
      <point x="768" y="346" type="curve" smooth="yes"/>
      <point x="572" y="346"/>
      <point x="491" y="237"/>
      <point x="491" y="132" type="curve" smooth="yes"/>
      <point x="491" y="-1"/>
      <point x="598" y="-66"/>
      <point x="936" y="-116" type="curve"/>
      <point x="842" y="-353" type="line"/>
      <point x="400" y="-281"/>
      <point x="159" y="-111"/>
      <point x="159" y="171" type="curve" smooth="yes"/>
      <point x="159" y="400"/>
      <point x="357" y="579"/>
    </contour>
    <component base="uvowelsigndeva" xOffset="1249" yOffset="-155"/>
  </outline>
</glyph>
<glyph name="harauudeva" format="1">
  <advance width="1361"/>
  <outline>
    <contour>
      <point x="980" y="375" type="line"/>
      <point x="842" y="7" type="line"/>
      <point x="581" y="79" type="line"/>
      <point x="712" y="451" type="line"/>
    </contour>
    <contour>
      <point x="729" y="579" type="curve" smooth="yes"/>
      <point x="1081" y="579"/>
      <point x="1285" y="416"/>
      <point x="1285" y="220" type="curve" smooth="yes"/>
      <point x="1285" y="138"/>
      <point x="1273" y="88"/>
      <point x="1241" y="11" type="curve"/>
      <point x="961" y="61" type="line"/>
      <point x="982" y="105"/>
      <point x="993" y="152"/>
      <point x="993" y="201" type="curve" smooth="yes"/>
      <point x="993" y="287"/>
      <point x="939" y="346"/>
      <point x="768" y="346" type="curve" smooth="yes"/>
      <point x="572" y="346"/>
      <point x="491" y="237"/>
      <point x="491" y="132" type="curve" smooth="yes"/>
      <point x="491" y="-1"/>
      <point x="604" y="-62"/>
      <point x="854" y="-103" type="curve"/>
      <point x="755" y="-337" type="line"/>
      <point x="411" y="-271"/>
      <point x="159" y="-111"/>
      <point x="159" y="171" type="curve" smooth="yes"/>
      <point x="159" y="400"/>
      <point x="357" y="579"/>
    </contour>
    <contour>
      <point x="812" y="1066" type="line"/>
      <point x="1177" y="1066" type="line"/>
      <point x="1177" y="696" type="line"/>
      <point x="529" y="696" type="line" smooth="yes"/>
      <point x="435" y="696"/>
      <point x="396" y="658"/>
      <point x="396" y="608" type="curve" smooth="yes"/>
      <point x="396" y="557"/>
      <point x="441" y="527"/>
      <point x="536" y="506" type="curve"/>
      <point x="536" y="506"/>
      <point x="292" y="331"/>
      <point x="292" y="331" type="curve"/>
      <point x="122" y="434"/>
      <point x="42" y="547"/>
      <point x="42" y="683" type="curve" smooth="yes"/>
      <point x="42" y="822"/>
      <point x="154" y="934"/>
      <point x="378" y="934" type="curve" smooth="yes"/>
      <point x="851" y="934" type="line"/>
      <point x="812" y="881" type="line"/>
    </contour>
    <contour>
      <point x="1391" y="1056" type="line"/>
      <point x="-30" y="1056" type="line"/>
      <point x="-30" y="1294" type="line"/>
      <point x="1391" y="1294" type="line"/>
    </contour>
    <component base="uuvowelsigndeva" xOffset="1094" yOffset="-119"/>
  </outline>
</glyph>
<glyph name="harrvocalicdeva" format="1">
  <advance width="1256"/>
  <outline>
    <contour>
      <point x="1260" y="94" type="curve"/>
      <point x="1113" y="94" type="line" smooth="yes"/>
      <point x="1049" y="94"/>
      <point x="1002" y="55"/>
      <point x="1002" y="14" type="curve" smooth="yes"/>
      <point x="1002" y="-22"/>
      <point x="1035" y="-45"/>
      <point x="1091" y="-45" type="curve" smooth="yes"/>
      <point x="1145" y="-45"/>
      <point x="1180" y="-41"/>
      <point x="1274" y="-17" type="curve"/>
      <point x="1312" y="-194" type="line"/>
      <point x="1216" y="-215"/>
      <point x="1162" y="-218"/>
      <point x="1081" y="-218" type="curve" smooth="yes"/>
      <point x="832" y="-218"/>
      <point x="689" y="-108"/>
      <point x="689" y="34" type="curve" smooth="yes"/>
      <point x="689" y="159"/>
      <point x="831" y="256"/>
      <point x="1023" y="256" type="curve" smooth="yes"/>
      <point x="1028" y="256"/>
      <point x="1034" y="256"/>
      <point x="1039" y="256" type="curve"/>
      <point x="972" y="221" type="line"/>
      <point x="972" y="280"/>
      <point x="903" y="328"/>
      <point x="737" y="328" type="curve" smooth="yes"/>
      <point x="572" y="328"/>
      <point x="474" y="225"/>
      <point x="474" y="98" type="curve" smooth="yes"/>
      <point x="474" y="-27"/>
      <point x="538" y="-138"/>
      <point x="796" y="-307" type="curve"/>
      <point x="621" y="-484" type="line"/>
      <point x="316" y="-306"/>
      <point x="158" y="-90"/>
      <point x="158" y="144" type="curve" smooth="yes"/>
      <point x="158" y="377"/>
      <point x="366" y="579"/>
      <point x="714" y="579" type="curve" smooth="yes"/>
      <point x="1066" y="579"/>
      <point x="1269" y="397"/>
      <point x="1269" y="219" type="curve" smooth="yes"/>
      <point x="1269" y="167"/>
      <point x="1265" y="130"/>
    </contour>
    <contour>
      <point x="1286" y="1056" type="line"/>
      <point x="-30" y="1056" type="line"/>
      <point x="-30" y="1294" type="line"/>
      <point x="1286" y="1294" type="line"/>
    </contour>
    <contour>
      <point x="707" y="1066" type="line"/>
      <point x="1072" y="1066" type="line"/>
      <point x="1072" y="696" type="line"/>
      <point x="529" y="696" type="line" smooth="yes"/>
      <point x="435" y="696"/>
      <point x="396" y="658"/>
      <point x="396" y="608" type="curve" smooth="yes"/>
      <point x="396" y="557"/>
      <point x="441" y="527"/>
      <point x="536" y="506" type="curve"/>
      <point x="536" y="506"/>
      <point x="292" y="331"/>
      <point x="292" y="331" type="curve"/>
      <point x="122" y="434"/>
      <point x="42" y="547"/>
      <point x="42" y="683" type="curve" smooth="yes"/>
      <point x="42" y="822"/>
      <point x="154" y="934"/>
      <point x="378" y="934" type="curve" smooth="yes"/>
      <point x="746" y="934" type="line"/>
      <point x="707" y="881" type="line"/>
    </contour>
    <contour>
      <point x="1385" y="-470" type="line"/>
      <point x="1318" y="-491"/>
      <point x="1238" y="-509"/>
      <point x="1148" y="-509" type="curve" smooth="yes"/>
      <point x="948" y="-509"/>
      <point x="851" y="-398"/>
      <point x="851" y="-291" type="curve" smooth="yes"/>
      <point x="851" y="-175"/>
      <point x="965" y="-61"/>
      <point x="1198" y="-61" type="curve"/>
      <point x="1247" y="-181" type="line"/>
      <point x="1139" y="-181"/>
      <point x="1083" y="-228"/>
      <point x="1083" y="-278" type="curve" smooth="yes"/>
      <point x="1083" y="-314"/>
      <point x="1109" y="-344"/>
      <point x="1176" y="-344" type="curve" smooth="yes"/>
      <point x="1230" y="-344"/>
      <point x="1270" y="-336"/>
      <point x="1350" y="-309" type="curve"/>
    </contour>
  </outline>
</glyph>
<glyph name="harvocalicdeva" format="1">
  <advance width="1256"/>
  <outline>
    <contour>
      <point x="1286" y="1056" type="line"/>
      <point x="-30" y="1056" type="line"/>
      <point x="-30" y="1294" type="line"/>
      <point x="1286" y="1294" type="line"/>
    </contour>
    <contour>
      <point x="707" y="1066" type="line"/>
      <point x="1072" y="1066" type="line"/>
      <point x="1072" y="696" type="line"/>
      <point x="529" y="696" type="line" smooth="yes"/>
      <point x="435" y="696"/>
      <point x="396" y="658"/>
      <point x="396" y="608" type="curve" smooth="yes"/>
      <point x="396" y="557"/>
      <point x="441" y="527"/>
      <point x="536" y="506" type="curve"/>
      <point x="536" y="506"/>
      <point x="292" y="331"/>
      <point x="292" y="331" type="curve"/>
      <point x="122" y="434"/>
      <point x="42" y="547"/>
      <point x="42" y="683" type="curve" smooth="yes"/>
      <point x="42" y="822"/>
      <point x="154" y="934"/>
      <point x="378" y="934" type="curve" smooth="yes"/>
      <point x="746" y="934" type="line"/>
      <point x="707" y="881" type="line"/>
    </contour>
    <contour>
      <point x="714" y="579" type="curve" smooth="yes"/>
      <point x="1066" y="579"/>
      <point x="1269.0" y="397.0"/>
      <point x="1269.0" y="219.0" type="curve" smooth="yes"/>
      <point x="1269.0" y="167.0"/>
      <point x="1265.0" y="130.0"/>
      <point x="1260.0" y="94.0" type="curve"/>
      <point x="1130.0" y="94.0" type="line" smooth="yes"/>
      <point x="1044.0" y="94.0"/>
      <point x="991.0" y="51.0"/>
      <point x="991.0" y="-5.0" type="curve" smooth="yes"/>
      <point x="991.0" y="-48.0"/>
      <point x="1026.0" y="-74.0"/>
      <point x="1088.0" y="-74.0" type="curve" smooth="yes"/>
      <point x="1145.0" y="-74.0"/>
      <point x="1200.0" y="-61.0"/>
      <point x="1288.0" y="-32.0" type="curve"/>
      <point x="1325.0" y="-231.0" type="line"/>
      <point x="1206.0" y="-260.0"/>
      <point x="1159.0" y="-264.0"/>
      <point x="1074.0" y="-264.0" type="curve" smooth="yes"/>
      <point x="881.0" y="-264.0"/>
      <point x="687.0" y="-168.0"/>
      <point x="687.0" y="17.0" type="curve" smooth="yes"/>
      <point x="687.0" y="172.0"/>
      <point x="840" y="256"/>
      <point x="1026" y="256" type="curve" smooth="yes"/>
      <point x="1030" y="256"/>
      <point x="1035" y="256"/>
      <point x="1039" y="256" type="curve"/>
      <point x="972.0" y="221.0" type="line"/>
      <point x="972.0" y="280.0"/>
      <point x="910" y="328"/>
      <point x="737" y="328" type="curve" smooth="yes"/>
      <point x="572" y="328"/>
      <point x="474" y="225"/>
      <point x="474" y="98" type="curve" smooth="yes"/>
      <point x="474" y="-27"/>
      <point x="538" y="-138"/>
      <point x="796" y="-307" type="curve"/>
      <point x="621" y="-484" type="line"/>
      <point x="316" y="-306"/>
      <point x="158" y="-90"/>
      <point x="158" y="144" type="curve" smooth="yes"/>
      <point x="158" y="377"/>
      <point x="366" y="579"/>
    </contour>
  </outline>
</glyph>
<glyph name="haudeva" format="1">
  <advance width="1256"/>
  <outline>
    <contour>
      <point x="707" y="1066" type="line"/>
      <point x="1072" y="1066" type="line"/>
      <point x="1072" y="696" type="line"/>
      <point x="529" y="696" type="line" smooth="yes"/>
      <point x="435" y="696"/>
      <point x="396" y="658"/>
      <point x="396" y="608" type="curve" smooth="yes"/>
      <point x="396" y="557"/>
      <point x="441" y="527"/>
      <point x="536" y="506" type="curve"/>
      <point x="536" y="506"/>
      <point x="292" y="331"/>
      <point x="292" y="331" type="curve"/>
      <point x="122" y="434"/>
      <point x="42" y="547"/>
      <point x="42" y="683" type="curve" smooth="yes"/>
      <point x="42" y="822"/>
      <point x="154" y="934"/>
      <point x="378" y="934" type="curve" smooth="yes"/>
      <point x="746" y="934" type="line"/>
      <point x="707" y="881" type="line"/>
    </contour>
    <contour>
      <point x="1286" y="1056" type="line"/>
      <point x="-30" y="1056" type="line"/>
      <point x="-30" y="1294" type="line"/>
      <point x="1286" y="1294" type="line"/>
    </contour>
    <contour>
      <point x="501" y="132" type="curve" smooth="yes"/>
      <point x="501" y="9"/>
      <point x="614" y="-67"/>
      <point x="936" y="-116" type="curve"/>
      <point x="842" y="-354" type="line"/>
      <point x="402" y="-281"/>
      <point x="159" y="-112"/>
      <point x="159" y="174" type="curve" smooth="yes"/>
      <point x="159" y="395"/>
      <point x="338" y="569"/>
      <point x="679" y="569" type="curve" smooth="yes"/>
      <point x="995" y="569"/>
      <point x="1183" y="422"/>
      <point x="1183" y="218" type="curve" smooth="yes"/>
      <point x="1183" y="136"/>
      <point x="1165" y="85"/>
      <point x="1131" y="11" type="curve"/>
      <point x="836" y="61" type="line"/>
      <point x="858" y="108"/>
      <point x="868" y="140"/>
      <point x="868" y="189" type="curve" smooth="yes"/>
      <point x="868" y="250"/>
      <point x="820" y="304"/>
      <point x="700" y="304" type="curve" smooth="yes"/>
      <point x="576" y="304"/>
      <point x="501" y="219"/>
    </contour>
    <component base="uvowelsigndeva" xOffset="1249" yOffset="-153"/>
  </outline>
</glyph>
<glyph name="havadeva" format="1">
  <advance width="1660"/>
  <outline>
    <contour>
      <point x="130" y="305"/>
      <point x="303" y="584"/>
      <point x="830" y="584" type="curve" smooth="yes"/>
      <point x="1254" y="584"/>
      <point x="1515" y="383"/>
      <point x="1515" y="70" type="curve" smooth="yes"/>
      <point x="1515" y="-366" type="line"/>
      <point x="1198" y="-366" type="line"/>
      <point x="1198" y="81" type="line" smooth="yes"/>
      <point x="1198" y="234"/>
      <point x="1120" y="319"/>
      <point x="854" y="319" type="curve" smooth="yes"/>
      <point x="538" y="319"/>
      <point x="433" y="167"/>
      <point x="433" y="25" type="curve" smooth="yes"/>
      <point x="433" y="-100"/>
      <point x="485" y="-196"/>
      <point x="746" y="-415" type="curve"/>
      <point x="539" y="-569" type="line"/>
      <point x="236" y="-334"/>
      <point x="130" y="-119"/>
      <point x="130" y="94" type="curve" smooth="yes"/>
    </contour>
    <contour>
      <point x="1690" y="1056" type="line"/>
      <point x="-30" y="1056" type="line"/>
      <point x="-30" y="1294" type="line"/>
      <point x="1690" y="1294" type="line"/>
    </contour>
    <contour>
      <point x="1111" y="1066" type="line"/>
      <point x="1476" y="1066" type="line"/>
      <point x="1476" y="696" type="line"/>
      <point x="529" y="696" type="line" smooth="yes"/>
      <point x="435" y="696"/>
      <point x="396" y="658"/>
      <point x="396" y="608" type="curve" smooth="yes"/>
      <point x="396" y="557"/>
      <point x="441" y="527"/>
      <point x="536" y="506" type="curve"/>
      <point x="536" y="506"/>
      <point x="292" y="331"/>
      <point x="292" y="331" type="curve"/>
      <point x="122" y="434"/>
      <point x="42" y="547"/>
      <point x="42" y="683" type="curve" smooth="yes"/>
      <point x="42" y="822"/>
      <point x="154" y="934"/>
      <point x="378" y="934" type="curve" smooth="yes"/>
      <point x="1150" y="934" type="line"/>
      <point x="1111" y="881" type="line"/>
    </contour>
    <contour>
      <point x="1219" y="-15" type="curve"/>
      <point x="1219" y="-262" type="line"/>
      <point x="1165" y="-283"/>
      <point x="1128" y="-295"/>
      <point x="1026" y="-295" type="curve" smooth="yes"/>
      <point x="786" y="-295"/>
      <point x="649" y="-148"/>
      <point x="649" y="-2" type="curve" smooth="yes"/>
      <point x="649" y="120"/>
      <point x="749" y="222"/>
      <point x="960" y="222" type="curve" smooth="yes"/>
      <point x="1096" y="222"/>
      <point x="1199" y="194"/>
      <point x="1270" y="160" type="curve"/>
      <point x="1269" y="-12" type="line"/>
      <point x="1188" y="29"/>
      <point x="1161" y="47"/>
      <point x="1050" y="47" type="curve" smooth="yes"/>
      <point x="965" y="47"/>
      <point x="913" y="6"/>
      <point x="913" y="-43" type="curve" smooth="yes"/>
      <point x="913" y="-88"/>
      <point x="958" y="-114"/>
      <point x="1018" y="-114" type="curve" smooth="yes"/>
      <point x="1106" y="-114"/>
      <point x="1158" y="-84"/>
    </contour>
    <contour>
      <point x="1111" y="1294" type="move" name="top"/>
    </contour>
    <contour>
      <point x="1198" y="-366" type="move" name="btm"/>
    </contour>
  </outline>
</glyph>
<glyph name="iivowelsign2deva" format="1">
  <advance width="683"/>
  <outline>
    <contour>
      <point x="130" y="1239" type="curve"/>
      <point x="54" y="1431"/>
      <point x="-31" y="1520"/>
      <point x="-134" y="1520" type="curve" smooth="yes"/>
      <point x="-194" y="1520"/>
      <point x="-224" y="1477"/>
      <point x="-224" y="1423" type="curve" smooth="yes"/>
      <point x="-224" y="1367"/>
      <point x="-190" y="1298"/>
      <point x="-143" y="1250" type="curve"/>
      <point x="-496" y="1250" type="line"/>
      <point x="-537" y="1316"/>
      <point x="-561" y="1415"/>
      <point x="-561" y="1508" type="curve" smooth="yes"/>
      <point x="-561" y="1655"/>
      <point x="-440" y="1821"/>
      <point x="-195" y="1821" type="curve" smooth="yes"/>
      <point x="111" y="1821"/>
      <point x="352" y="1629"/>
      <point x="494" y="1239" type="curve"/>
      <point x="494" y="1239"/>
      <point x="130" y="1239"/>
    </contour>
    <component base="aavowelsigndeva"/>
  </outline>
</glyph>
<glyph name="ivowelsign01deva" format="1">
  <advance width="683"/>
  <outline>
    <contour>
      <point x="133" y="1254" type="curve"/>
      <point x="133" y="1338" type="line" smooth="yes"/>
      <point x="133" y="1602"/>
      <point x="290" y="1803"/>
      <point x="708" y="1803" type="curve" smooth="yes"/>
      <point x="936" y="1803"/>
      <point x="1168" y="1760"/>
      <point x="1351" y="1692" type="curve"/>
      <point x="1279" y="1447" type="line"/>
      <point x="1118" y="1495"/>
      <point x="956" y="1520"/>
      <point x="764" y="1520" type="curve" smooth="yes"/>
      <point x="571" y="1520"/>
      <point x="499" y="1423"/>
      <point x="499" y="1322" type="curve" smooth="yes"/>
      <point x="499" y="1254" type="line"/>
      <point x="499" y="1254"/>
      <point x="133" y="1254"/>
    </contour>
    <component base="aavowelsigndeva"/>
  </outline>
</glyph>
<glyph name="kassaprehalfdeva" format="1">
  <advance width="1088"/>
  <outline>
    <contour>
      <point x="513" y="117" type="line"/>
      <point x="760" y="196" type="line"/>
      <point x="900" y="-120" type="line"/>
      <point x="636" y="-203" type="line"/>
    </contour>
    <contour>
      <point x="376" y="339" type="curve" smooth="yes"/>
      <point x="376" y="274"/>
      <point x="417" y="240"/>
      <point x="497" y="240" type="curve" smooth="yes"/>
      <point x="541" y="240"/>
      <point x="546" y="241"/>
      <point x="619" y="262" type="curve"/>
      <point x="497" y="156" type="line"/>
      <point x="480" y="201"/>
      <point x="472" y="229"/>
      <point x="472" y="276" type="curve" smooth="yes"/>
      <point x="472" y="335"/>
      <point x="553" y="401"/>
      <point x="647" y="401" type="curve" smooth="yes"/>
      <point x="818" y="401"/>
      <point x="922" y="310"/>
      <point x="922" y="216" type="curve" smooth="yes"/>
      <point x="922" y="117"/>
      <point x="758" y="10"/>
      <point x="529" y="10" type="curve" smooth="yes"/>
      <point x="262" y="10"/>
      <point x="46" y="128"/>
      <point x="46" y="370" type="curve" smooth="yes"/>
      <point x="46" y="515"/>
      <point x="153" y="632"/>
      <point x="365" y="746" type="curve" smooth="yes"/>
      <point x="570" y="856"/>
      <point x="618" y="916"/>
      <point x="618" y="986" type="curve" smooth="yes"/>
      <point x="618" y="1036"/>
      <point x="583" y="1068"/>
      <point x="531" y="1068" type="curve" smooth="yes"/>
      <point x="474" y="1068"/>
      <point x="441" y="1029"/>
      <point x="441" y="972" type="curve" smooth="yes"/>
      <point x="441" y="849"/>
      <point x="702" y="735"/>
      <point x="1066" y="735" type="curve" smooth="yes"/>
      <point x="1150" y="735"/>
      <point x="1213" y="742"/>
      <point x="1330" y="763" type="curve"/>
      <point x="1360" y="488" type="line"/>
      <point x="1297" y="473"/>
      <point x="1213" y="461"/>
      <point x="1134" y="461" type="curve" smooth="yes"/>
      <point x="527" y="461"/>
      <point x="133" y="721"/>
      <point x="132" y="1026" type="curve" smooth="yes"/>
      <point x="131" y="1192"/>
      <point x="256" y="1323"/>
      <point x="499" y="1323" type="curve" smooth="yes"/>
      <point x="774" y="1323"/>
      <point x="905" y="1165"/>
      <point x="905" y="996" type="curve" smooth="yes"/>
      <point x="905" y="824"/>
      <point x="825" y="704"/>
      <point x="608" y="575" type="curve" smooth="yes"/>
      <point x="438" y="474"/>
      <point x="376" y="401"/>
    </contour>
  </outline>
</glyph>
<glyph name="ladevaMAR" format="1">
  <advance width="1687"/>
  <outline>
    <contour>
      <point x="1051" y="632" type="curve"/>
      <point x="837" y="455" type="line"/>
      <point x="749" y="558"/>
      <point x="672" y="606"/>
      <point x="579" y="606" type="curve" smooth="yes"/>
      <point x="464" y="606"/>
      <point x="399" y="521"/>
      <point x="399" y="427" type="curve" smooth="yes"/>
      <point x="399" y="336"/>
      <point x="455" y="251"/>
      <point x="605" y="108" type="curve"/>
      <point x="349" y="-26" type="line"/>
      <point x="171" y="134"/>
      <point x="66" y="317"/>
      <point x="66" y="505" type="curve" smooth="yes"/>
      <point x="66" y="739"/>
      <point x="232" y="910"/>
      <point x="470" y="910" type="curve" smooth="yes"/>
      <point x="694" y="910"/>
      <point x="846" y="831"/>
    </contour>
    <contour>
      <point x="627" y="345" type="curve" smooth="yes"/>
      <point x="693" y="643"/>
      <point x="843" y="893"/>
      <point x="1157" y="893" type="curve" smooth="yes"/>
      <point x="1461" y="893"/>
      <point x="1622" y="716"/>
      <point x="1622" y="473" type="curve" smooth="yes"/>
      <point x="1622" y="303"/>
      <point x="1526" y="118"/>
      <point x="1367" y="-26" type="curve"/>
      <point x="1081" y="118" type="line"/>
      <point x="1226" y="256"/>
      <point x="1295" y="372"/>
      <point x="1295" y="486" type="curve" smooth="yes"/>
      <point x="1295" y="551"/>
      <point x="1256" y="591"/>
      <point x="1194" y="591" type="curve" smooth="yes"/>
      <point x="1087" y="591"/>
      <point x="986" y="473"/>
      <point x="938" y="236" type="curve" smooth="yes"/>
      <point x="938" y="236"/>
      <point x="627" y="345"/>
    </contour>
    <contour>
      <point x="1138" y="1096" type="line"/>
      <point x="1503" y="1096" type="line"/>
      <point x="1503" y="693" type="line"/>
      <point x="1138" y="693" type="line"/>
    </contour>
    <contour>
      <point x="-30" y="1056" type="curve"/>
      <point x="-30" y="1294" type="line"/>
      <point x="1717" y="1294" type="line"/>
      <point x="1717" y="1056" type="line"/>
      <point x="1717" y="1056"/>
      <point x="-30" y="1056"/>
    </contour>
    <contour>
      <point x="681.0" y="-18.0" type="move" name="btm"/>
    </contour>
    <contour>
      <point x="1014.0" y="1294.0" type="move" name="top"/>
    </contour>
  </outline>
</glyph>
<glyph name="nnaraprehalfdeva" format="1">
  <advance width="1193"/>
  <outline>
    <contour>
      <point x="1584" y="283" type="line"/>
      <point x="933" y="-146" type="line"/>
      <point x="744" y="98" type="line"/>
      <point x="1385" y="527" type="line"/>
    </contour>
    <component base="nnaprehalfdeva"/>
  </outline>
</glyph>
<glyph name="nyaradeva" format="1">
  <advance width="1880"/>
  <outline>
    <contour>
      <point x="1581" y="235" type="line"/>
      <point x="867" y="-263" type="line"/>
      <point x="690" y="-42" type="line"/>
      <point x="1404" y="470" type="line"/>
    </contour>
    <component base="nyadeva"/>
    <contour>
      <point x="1330" y="1294" type="move" name="top"/>
    </contour>
  </outline>
</glyph>
<glyph name="saradeva" format="1">
  <advance width="1661"/>
  <outline>
    <contour>
      <point x="1303" y="482" type="line"/>
      <point x="921" y="73" type="line"/>
      <point x="694" y="268" type="line"/>
      <point x="1096" y="667" type="line"/>
    </contour>
    <contour>
      <point x="760" y="97" type="line"/>
      <point x="498" y="-72" type="line"/>
      <point x="105" y="541" type="line" smooth="yes"/>
      <point x="56" y="617"/>
      <point x="23" y="672"/>
      <point x="23" y="735" type="curve" smooth="yes"/>
      <point x="23" y="816"/>
      <point x="82" y="888"/>
      <point x="178" y="888" type="curve" smooth="yes"/>
      <point x="250" y="888"/>
      <point x="314" y="851"/>
      <point x="349" y="792" type="curve" smooth="yes"/>
      <point x="422" y="667" type="line"/>
      <point x="398" y="646" type="line"/>
    </contour>
    <contour>
      <point x="265" y="727" type="line"/>
      <point x="388" y="771"/>
      <point x="434" y="828"/>
      <point x="434" y="957" type="curve" smooth="yes"/>
      <point x="434" y="1116" type="line"/>
      <point x="800" y="1116" type="line"/>
      <point x="800" y="900" type="line" smooth="yes"/>
      <point x="800" y="708"/>
      <point x="667" y="519"/>
      <point x="458" y="445" type="curve"/>
    </contour>
    <contour>
      <point x="-30" y="1056" type="curve"/>
      <point x="-30" y="1294" type="line"/>
      <point x="1691" y="1294" type="line"/>
      <point x="1691" y="1056" type="line"/>
      <point x="1691" y="1056"/>
      <point x="-30" y="1056"/>
    </contour>
    <contour>
      <point x="511" y="529" type="curve"/>
      <point x="662" y="772" type="line"/>
      <point x="726" y="748"/>
      <point x="816" y="730"/>
      <point x="883" y="730" type="curve" smooth="yes"/>
      <point x="977" y="730"/>
      <point x="1051" y="737"/>
      <point x="1138" y="752" type="curve"/>
      <point x="1138" y="477" type="line"/>
      <point x="1076" y="464"/>
      <point x="1015" y="458"/>
      <point x="940" y="458" type="curve" smooth="yes"/>
      <point x="832" y="458"/>
      <point x="682" y="476"/>
    </contour>
    <contour>
      <point x="1111" y="1096" type="line"/>
      <point x="1477" y="1096" type="line"/>
      <point x="1477" y="0" type="line"/>
      <point x="1111" y="0" type="line"/>
    </contour>
    <contour>
      <point x="1111" y="1294" type="move" name="top"/>
    </contour>
  </outline>
</glyph>
<glyph name="shaladevaMAR" format="1">
  <advance width="2608"/>
  <outline>
    <contour>
      <point x="201" y="314" type="line"/>
      <point x="44" y="575" type="line"/>
      <point x="331" y="720" type="line" smooth="yes"/>
      <point x="575" y="843"/>
      <point x="634" y="908"/>
      <point x="634" y="977" type="curve" smooth="yes"/>
      <point x="634" y="1029"/>
      <point x="603" y="1066"/>
      <point x="552" y="1066" type="curve" smooth="yes"/>
      <point x="488" y="1066"/>
      <point x="461" y="1028"/>
      <point x="461" y="981" type="curve" smooth="yes"/>
      <point x="461" y="879"/>
      <point x="724" y="730"/>
      <point x="1256" y="730" type="curve" smooth="yes"/>
      <point x="1301" y="730" type="line"/>
      <point x="1257" y="469" type="line"/>
      <point x="1201" y="469" type="line" smooth="yes"/>
      <point x="583" y="469"/>
      <point x="144" y="715"/>
      <point x="144" y="1024" type="curve" smooth="yes"/>
      <point x="144" y="1179"/>
      <point x="272" y="1327"/>
      <point x="526" y="1327" type="curve" smooth="yes"/>
      <point x="786" y="1327"/>
      <point x="930" y="1164"/>
      <point x="930" y="972" type="curve" smooth="yes"/>
      <point x="930" y="778"/>
      <point x="798" y="619"/>
      <point x="479" y="456" type="curve" smooth="yes"/>
    </contour>
    <contour>
      <point x="1999" y="640" type="curve"/>
      <point x="1785" y="463" type="line"/>
      <point x="1697" y="566"/>
      <point x="1628" y="606"/>
      <point x="1527" y="606" type="curve" smooth="yes"/>
      <point x="1407" y="606"/>
      <point x="1343" y="528"/>
      <point x="1343" y="430" type="curve" smooth="yes"/>
      <point x="1343" y="319"/>
      <point x="1410" y="227"/>
      <point x="1507" y="118" type="curve"/>
      <point x="1261" y="-18" type="line"/>
      <point x="1137" y="109"/>
      <point x="1014" y="317"/>
      <point x="1014" y="505" type="curve" smooth="yes"/>
      <point x="1014" y="739"/>
      <point x="1180" y="910"/>
      <point x="1445" y="910" type="curve" smooth="yes"/>
      <point x="1656" y="910"/>
      <point x="1806" y="826"/>
    </contour>
    <contour>
      <point x="1548" y="345" type="curve" smooth="yes"/>
      <point x="1614" y="639"/>
      <point x="1764" y="893"/>
      <point x="2078" y="893" type="curve" smooth="yes"/>
      <point x="2382" y="893"/>
      <point x="2544" y="714"/>
      <point x="2544" y="480" type="curve" smooth="yes"/>
      <point x="2544" y="288"/>
      <point x="2443" y="117"/>
      <point x="2290" y="-27" type="curve"/>
      <point x="2002" y="119" type="line"/>
      <point x="2149" y="257"/>
      <point x="2217" y="371"/>
      <point x="2217" y="485" type="curve" smooth="yes"/>
      <point x="2217" y="558"/>
      <point x="2171" y="591"/>
      <point x="2112" y="591" type="curve" smooth="yes"/>
      <point x="2010" y="591"/>
      <point x="1907" y="473"/>
      <point x="1859" y="236" type="curve" smooth="yes"/>
      <point x="1859" y="236"/>
      <point x="1548" y="345"/>
    </contour>
    <contour>
      <point x="2058" y="1096" type="line"/>
      <point x="2424" y="1096" type="line"/>
      <point x="2424" y="713" type="line"/>
      <point x="2058" y="713" type="line"/>
    </contour>
    <contour>
      <point x="1091" y="1056" type="curve"/>
      <point x="1091" y="1294" type="line"/>
      <point x="2638" y="1294" type="line"/>
      <point x="2638" y="1056" type="line"/>
      <point x="2638" y="1056"/>
      <point x="1091" y="1056"/>
    </contour>
    <contour>
      <point x="1935.0" y="1294.0" type="move" name="top"/>
    </contour>
    <contour>
      <point x="1582.0" y="-22.0" type="move" name="btm"/>
    </contour>
  </outline>
</glyph>
<glyph name="sharadeva" format="1">
  <advance width="1642"/>
  <outline>
    <contour>
      <point x="1242" y="379" type="line"/>
      <point x="559" y="-40" type="line"/>
      <point x="392" y="215" type="line"/>
      <point x="1060" y="621" type="line"/>
    </contour>
    <contour>
      <point x="201" y="314" type="line"/>
      <point x="44" y="575" type="line"/>
      <point x="331" y="720" type="line" smooth="yes"/>
      <point x="575" y="843"/>
      <point x="634" y="908"/>
      <point x="634" y="977" type="curve" smooth="yes"/>
      <point x="634" y="1029"/>
      <point x="603" y="1066"/>
      <point x="552" y="1066" type="curve" smooth="yes"/>
      <point x="488" y="1066"/>
      <point x="461" y="1028"/>
      <point x="461" y="981" type="curve" smooth="yes"/>
      <point x="461" y="870"/>
      <point x="698" y="777"/>
      <point x="1281" y="687" type="curve"/>
      <point x="1207" y="442" type="line"/>
      <point x="422" y="527"/>
      <point x="144" y="762"/>
      <point x="144" y="1024" type="curve" smooth="yes"/>
      <point x="144" y="1179"/>
      <point x="272" y="1327"/>
      <point x="526" y="1327" type="curve" smooth="yes"/>
      <point x="786" y="1327"/>
      <point x="930" y="1164"/>
      <point x="930" y="972" type="curve" smooth="yes"/>
      <point x="930" y="778"/>
      <point x="798" y="619"/>
      <point x="479" y="456" type="curve" smooth="yes"/>
    </contour>
    <contour>
      <point x="1092" y="1096" type="line"/>
      <point x="1458" y="1096" type="line"/>
      <point x="1458" y="0" type="line"/>
      <point x="1092" y="0" type="line"/>
    </contour>
    <contour>
      <point x="1672" y="1056" type="line"/>
      <point x="1019" y="1056" type="line"/>
      <point x="1019" y="1294" type="line"/>
      <point x="1672" y="1294" type="line"/>
    </contour>
    <contour>
      <point x="1092" y="1294" type="move" name="top"/>
    </contour>
  </outline>
</glyph>
<glyph name="shavaprehalfdeva" format="1">
  <advance width="1046"/>
  <outline>
    <contour>
      <point x="201" y="314" type="line"/>
      <point x="44" y="575" type="line"/>
      <point x="331" y="720" type="line" smooth="yes"/>
      <point x="575" y="843"/>
      <point x="634" y="908"/>
      <point x="634" y="977" type="curve" smooth="yes"/>
      <point x="634" y="1029"/>
      <point x="603" y="1066"/>
      <point x="552" y="1066" type="curve" smooth="yes"/>
      <point x="488" y="1066"/>
      <point x="461" y="1028"/>
      <point x="461" y="981" type="curve" smooth="yes"/>
      <point x="461" y="870"/>
      <point x="678" y="781"/>
      <point x="1261" y="689" type="curve"/>
      <point x="1337" y="425" type="line"/>
      <point x="422" y="507"/>
      <point x="144" y="762"/>
      <point x="144" y="1024" type="curve" smooth="yes"/>
      <point x="144" y="1179"/>
      <point x="272" y="1327"/>
      <point x="526" y="1327" type="curve" smooth="yes"/>
      <point x="786" y="1327"/>
      <point x="930" y="1164"/>
      <point x="930" y="972" type="curve" smooth="yes"/>
      <point x="930" y="778"/>
      <point x="798" y="619"/>
      <point x="479" y="456" type="curve" smooth="yes"/>
    </contour>
    <contour>
      <point x="1037" y="75" type="curve" smooth="yes"/>
      <point x="1037" y="127"/>
      <point x="976" y="178"/>
      <point x="852" y="178" type="curve" smooth="yes"/>
      <point x="747" y="178"/>
      <point x="696" y="120"/>
      <point x="696" y="58" type="curve" smooth="yes"/>
      <point x="696" y="1"/>
      <point x="756" y="-41"/>
      <point x="833" y="-41" type="curve" smooth="yes"/>
      <point x="982" y="-41"/>
      <point x="1037" y="19"/>
    </contour>
    <contour>
      <point x="1297" y="66" type="curve" smooth="yes"/>
      <point x="1297" y="-100"/>
      <point x="1137" y="-272"/>
      <point x="858" y="-272" type="curve" smooth="yes"/>
      <point x="568" y="-272"/>
      <point x="393" y="-88"/>
      <point x="393" y="104" type="curve" smooth="yes"/>
      <point x="393" y="263"/>
      <point x="512" y="404"/>
      <point x="797" y="404" type="curve" smooth="yes"/>
      <point x="1104" y="404"/>
      <point x="1297" y="241"/>
    </contour>
  </outline>
</glyph>
<glyph name="tathadeva" format="1">
  <advance width="2220"/>
  <outline>
    <contour>
      <point x="1081" y="769" type="curve"/>
      <point x="941" y="466" type="line"/>
      <point x="807" y="567"/>
      <point x="739" y="604"/>
      <point x="626" y="604" type="curve" smooth="yes"/>
      <point x="480" y="604"/>
      <point x="425" y="507"/>
      <point x="425" y="409" type="curve" smooth="yes"/>
      <point x="425" y="315"/>
      <point x="473" y="207"/>
      <point x="559" y="50" type="curve"/>
      <point x="268" y="-35" type="line"/>
      <point x="152" y="156"/>
      <point x="84" y="342"/>
      <point x="86" y="502" type="curve" smooth="yes"/>
      <point x="89" y="723"/>
      <point x="222" y="908"/>
      <point x="538" y="908" type="curve" smooth="yes"/>
      <point x="731" y="908"/>
      <point x="916" y="846"/>
    </contour>
    <contour>
      <point x="-30" y="1056" type="curve"/>
      <point x="-30" y="1294" type="line"/>
      <point x="833" y="1294" type="line"/>
      <point x="833" y="1056" type="line"/>
      <point x="833" y="1056"/>
      <point x="-30" y="1056"/>
    </contour>
    <component base="thadeva" xOffset="700"/>
  </outline>
</glyph>
<glyph name="thaprehalfdeva" format="1">
  <advance width="956"/>
  <outline>
    <contour>
      <point x="813" y="921" type="curve" smooth="yes"/>
      <point x="813" y="715"/>
      <point x="638" y="562"/>
      <point x="429" y="513" type="curve"/>
      <point x="429" y="615" type="line"/>
      <point x="493" y="543"/>
      <point x="564" y="493"/>
      <point x="682" y="493" type="curve" smooth="yes"/>
      <point x="863" y="493"/>
      <point x="1023" y="535"/>
      <point x="1201" y="688" type="curve"/>
      <point x="1201" y="688"/>
      <point x="1342" y="415"/>
      <point x="1342" y="415" type="curve"/>
      <point x="1193" y="268"/>
      <point x="987" y="202"/>
      <point x="791" y="202" type="curve" smooth="yes"/>
      <point x="516" y="202"/>
      <point x="229" y="373"/>
      <point x="91" y="670" type="curve"/>
      <point x="91" y="676" type="line"/>
      <point x="300" y="712"/>
      <point x="502" y="827"/>
      <point x="502" y="964" type="curve" smooth="yes"/>
      <point x="502" y="1050"/>
      <point x="449" y="1097"/>
      <point x="395" y="1097" type="curve" smooth="yes"/>
      <point x="349" y="1097"/>
      <point x="323" y="1065"/>
      <point x="323" y="1019" type="curve" smooth="yes"/>
      <point x="323" y="961"/>
      <point x="370" y="905"/>
      <point x="487" y="854" type="curve"/>
      <point x="384" y="706" type="line"/>
      <point x="105" y="794"/>
      <point x="5" y="926"/>
      <point x="5" y="1082" type="curve" smooth="yes"/>
      <point x="5" y="1221"/>
      <point x="108" y="1343"/>
      <point x="322" y="1343" type="curve" smooth="yes"/>
      <point x="637" y="1343"/>
      <point x="813" y="1134"/>
    </contour>
  </outline>
</glyph>
<glyph name="varaprehalfdeva" format="1">
  <advance width="723"/>
  <outline>
    <contour>
      <point x="807" y="204" type="line"/>
      <point x="171" y="-137" type="line"/>
      <point x="14" y="108" type="line"/>
      <point x="640" y="448" type="line"/>
    </contour>
    <component base="vaprehalfdeva"/>
  </outline>
</glyph>
